
<svg xmlns="http://www.w3.org/2000/svg" width="840" height="730">
  <g width="420" height="730" class="left" transform="translate(-50,0) scale(0.5,0.6)">
    <g class="mesh">
      <path class="door" fill="none" stroke-width="4" d="M210.0000000000156,55.55485522604056C270.75976838342814,114.38649440699562,331.51953676683166,239.69324720335763,301.13965257512086,364.99999999981543C270.75976838341006,490.3067527962733,149.2402316165849,615.613505592827,118.8603474248852,674.4451447738701C88.48046323318546,733.2767839549133,149.24023161661117,725.6333095204462,210.00000000002396,723.7001956335981C270.7597683834367,721.7670817467503,331.51953676683655,725.5443284075214,301.13965257512376,607.8810500455232C270.7597683834109,490.217771683525,149.24023161658548,251.1139682987571,118.8603474248835,127.74032938914723C88.48046323318154,4.3666904795373584,149.24023161660307,-3.2767839549145115,210.0000000000156,55.55485522604056" stroke="#2C2E34"/>
      <path class="door" fill="none" stroke-width="4" d="M301.13965257512086,364.99999999981543C270.75976838341006,490.3067527962733,149.2402316165849,615.613505592827,118.8603474248852,674.4451447738701C88.48046323318546,733.2767839549133,149.24023161661117,725.6333095204462,210.00000000002396,723.7001956335981C270.7597683834367,721.7670817467503,331.51953676683655,725.5443284075214,301.13965257512456,605.9924267151523C270.75976838341256,486.440525022783,149.2402316165888,243.55947497727314,118.86034742488683,120.18583606766327C88.48046323318488,-3.1878028419466014,149.24023161660475,-7.054030615656491,210.00000000001646,53.66623189566957C270.75976838342814,114.38649440699562,331.51953676683166,239.69324720335763,301.13965257512086,364.99999999981543" stroke="#2C2E34"/>
      <path class="door" fill="none" stroke-width="4" d="M118.8603474248852,674.4451447738701C88.48046323318546,733.2767839549133,149.24023161661117,725.6333095204462,210.00000000002396,723.7001956335981C270.7597683834367,721.7670817467503,331.51953676683655,725.5443284075214,301.13965257512456,605.9924267151523C270.75976838341256,486.440525022783,149.2402316165888,243.55947497727314,118.8603474248863,124.00757328489817C88.48046323318378,4.455671592523212,149.24023161660259,8.232918253283136,210.00000000001424,68.9531807646092C270.759768383426,129.67344327593526,331.51953676683064,247.33672163782748,301.13965257512035,368.8217372170504C270.75976838341006,490.3067527962733,149.2402316165849,615.613505592827,118.8603474248852,674.4451447738701" stroke="#2C2E34"/>
      <path class="door" fill="none" stroke-width="4" d="M210.00000000002396,723.7001956335981C270.7597683834367,721.7670817467503,331.51953676683655,725.5443284075214,301.13965257512456,605.9924267151523C270.75976838341256,486.440525022783,149.2402316165888,243.55947497727314,118.8603474248863,124.00757328489817C88.48046323318378,4.455671592523212,149.24023161660259,8.232918253283136,210.00000000001452,6.299804366428816C270.7597683834265,4.366690479574497,331.51953676683166,-3.2767839548940665,301.1396525751214,118.20823162432885C270.7597683834111,239.69324720355178,149.24023161658542,490.3067527964661,118.86034742488545,611.7917683756898C88.48046323318546,733.2767839549133,149.24023161661117,725.6333095204462,210.00000000002396,723.7001956335981" stroke="#2C2E34"/>
      <path class="door" fill="none" stroke-width="4" d="M301.13965257512456,605.9924267151523C270.75976838341256,486.440525022783,149.2402316165888,243.55947497727314,118.8603474248863,124.00757328489817C88.48046323318378,4.455671592523212,149.24023161660259,8.232918253283136,210.00000000001452,6.299804366428816C270.7597683834265,4.366690479574497,331.51953676683166,-3.2767839548940665,301.1396525751217,55.554855226051046C270.75976838341177,114.38649440699616,149.24023161658678,239.69324720335496,118.8603474248868,361.17826278257854C88.48046323318681,482.66327836180216,149.24023161661185,600.3265567238906,210.0000000000243,661.0468192353204C270.7597683834367,721.7670817467503,331.51953676683655,725.5443284075214,301.13965257512456,605.9924267151523" stroke="#2C2E34"/>
      <path class="door" fill="none" stroke-width="4" d="M118.8603474248863,124.00757328489817C88.48046323318378,4.455671592523212,149.24023161660259,8.232918253283136,210.00000000001452,6.299804366428816C270.7597683834265,4.366690479574497,331.51953676683166,-3.2767839548940665,301.1396525751217,55.554855226051046C270.75976838341177,114.38649440699616,149.24023161658678,239.69324720335496,118.86034742488444,364.9999999998072C88.48046323318214,490.30675279625945,149.2402316166025,615.6135055928052,210.00000000001492,676.333768104235C270.75976838342734,737.0540306156649,331.5195367668319,733.1878028419789,301.1396525751222,609.8141639323809C270.75976838341256,486.440525022783,149.2402316165888,243.55947497727314,118.8603474248863,124.00757328489817" stroke="#2C2E34"/>
    </g>
  </g>
</svg>
