<?xml version="1.0" encoding="UTF-8"?>
<svg viewBox="0 0 500 500" xmlns="http://www.w3.org/2000/svg"><circle cy="0" cx="200" r="34" fill="none" stroke="rgb(228, 50, 28)" stroke-width="1" transform="translate(250,250)"></circle><circle cy="-63.86689373476099" cx="-180.96541049320385" r="57.88591052604949" fill="none" stroke="rgb(228, 50, 28)" stroke-width="1" transform="translate(250,250)"></circle><circle cy="115.57698641636853" cx="127.48479794973773" r="64.45090477258933" fill="none" stroke="rgb(228, 50, 28)" stroke-width="1" transform="translate(250,250)"></circle><circle cy="-145.28747416929474" cx="-49.73797743297057" r="48.93436389715306" fill="none" stroke="rgb(228, 50, 28)" stroke-width="1" transform="translate(250,250)"></circle><circle cy="147.3430876093032" cx="-37.47626291714546" r="22.588138866774827" fill="none" stroke="rgb(228, 50, 28)" stroke-width="1" transform="translate(250,250)"></circle><circle cy="-121.35254915624151" cx="117.55705045849577" r="4.517247994850106" fill="none" stroke="rgb(228, 50, 28)" stroke-width="1" transform="translate(250,250)"></circle><circle cy="72.26305111525676" cx="-175.26133600877313" r="7.8258343094376706" fill="none" stroke="rgb(229, 50, 27)" stroke-width="1" transform="translate(250,250)"></circle><circle cy="-9.418577929396825" cx="199.60534568565433" r="30.114669759506643" fill="none" stroke="rgb(229, 50, 27)" stroke-width="1" transform="translate(250,250)"></circle><circle cy="-55.218682902702454" cx="-185.95529717764987" r="55.220960283789594" fill="none" stroke="rgb(229, 51, 27)" stroke-width="1" transform="translate(250,250)"></circle><circle cy="109.34529411321273" cx="136.90942118573633" r="64.93882858127638" fill="none" stroke="rgb(229, 51, 27)" stroke-width="1" transform="translate(250,250)"></circle><circle cy="-142.65847744427367" cx="-61.80339887498684" r="52.22134282106597" fill="none" stroke="rgb(229, 51, 27)" stroke-width="1" transform="translate(250,250)"></circle><circle cy="148.8172051971716" cx="-25.066646712861633" r="26.290613497889264" fill="none" stroke="rgb(229, 51, 27)" stroke-width="1" transform="translate(250,250)"></circle><circle cy="-126.6491888253016" cx="107.1653589958007" r="5.950361373553179" fill="none" stroke="rgb(229, 51, 27)" stroke-width="1" transform="translate(250,250)"></circle><circle cy="80.37401924684792" cx="-168.86558510040436" r="5.950361373553722" fill="none" stroke="rgb(229, 51, 27)" stroke-width="1" transform="translate(250,250)"></circle><circle cy="-18.79998503464527" cx="198.42294026289562" r="26.290613497889648" fill="none" stroke="rgb(229, 51, 27)" stroke-width="1" transform="translate(250,250)"></circle><circle cy="-46.35254915624509" cx="-190.21130325902942" r="52.221342821067715" fill="none" stroke="rgb(229, 51, 27)" stroke-width="1" transform="translate(250,250)"></circle><circle cy="102.6820658893045" cx="145.7937254842808" r="64.93882858127645" fill="none" stroke="rgb(229, 51, 27)" stroke-width="1" transform="translate(250,250)"></circle><circle cy="-139.46647288323777" cx="-73.62491053693542" r="55.22096028378931" fill="none" stroke="rgb(229, 51, 27)" stroke-width="1" transform="translate(250,250)"></circle><circle cy="149.70400926424054" cx="-12.558103905866542" r="30.114669759505375" fill="none" stroke="rgb(229, 52, 27)" stroke-width="1" transform="translate(250,250)"></circle><circle cy="-131.44600200657885" cx="96.3507348203447" r="7.825834309437223" fill="none" stroke="rgb(230, 52, 26)" stroke-width="1" transform="translate(250,250)"></circle><circle cy="88.16778784386759" cx="-161.80339887499278" r="4.5172479948507736" fill="none" stroke="rgb(230, 52, 26)" stroke-width="1" transform="translate(250,250)"></circle><circle cy="-28.107197187856062" cx="196.45745014573842" r="22.588138866776013" fill="none" stroke="rgb(230, 52, 26)" stroke-width="1" transform="translate(250,250)"></circle><circle cy="-37.303483074729364" cx="-193.71663222572585" r="48.9343638971536" fill="none" stroke="rgb(230, 52, 26)" stroke-width="1" transform="translate(250,250)"></circle><circle cy="95.61359846230651" cx="154.10264855515447" r="64.45090477258965" fill="none" stroke="rgb(230, 52, 26)" stroke-width="1" transform="translate(250,250)"></circle><circle cy="-135.72405786990396" cx="-85.15585831301158" r="57.88591052604882" fill="none" stroke="rgb(230, 52, 26)" stroke-width="1" transform="translate(250,250)"></circle><circle cy="150" cx="-1.2747468362591063e-12" r="33.9999999999996" fill="none" stroke="rgb(230, 52, 26)" stroke-width="1" transform="translate(250,250)"></circle><circle cy="-135.72405786990134" cx="85.15585831301902" r="10.114089473949551" fill="none" stroke="rgb(230, 52, 26)" stroke-width="1" transform="translate(250,250)"></circle><circle cy="95.61359846229847" cx="-154.10264855516337" r="3.5490952274111507" fill="none" stroke="rgb(230, 52, 26)" stroke-width="1" transform="translate(250,250)"></circle><circle cy="-37.30348307472751" cx="193.71663222572647" r="19.065636102847094" fill="none" stroke="rgb(230, 53, 26)" stroke-width="1" transform="translate(250,250)"></circle><circle cy="-28.10719718786213" cx="-196.45745014573686" r="45.41186113322636" fill="none" stroke="rgb(230, 53, 26)" stroke-width="1" transform="translate(250,250)"></circle><circle cy="88.16778784387603" cx="161.8033988749846" r="63.48275200515056" fill="none" stroke="rgb(230, 53, 26)" stroke-width="1" transform="translate(250,250)"></circle><circle cy="-131.44600200657976" cx="-96.35073482034248" r="60.17416569056236" fill="none" stroke="rgb(230, 53, 26)" stroke-width="1" transform="translate(250,250)"></circle><circle cy="149.70400926424094" cx="12.558103905858323" r="37.88533024049209" fill="none" stroke="rgb(230, 53, 26)" stroke-width="1" transform="translate(250,250)"></circle><circle cy="-139.4664728832355" cx="73.62491053694308" r="12.779039716208832" fill="none" stroke="rgb(231, 53, 25)" stroke-width="1" transform="translate(250,250)"></circle><circle cy="102.68206588930309" cx="-145.79372548428256" r="3.061171418723589" fill="none" stroke="rgb(231, 53, 25)" stroke-width="1" transform="translate(250,250)"></circle><circle cy="-46.35254915623922" cx="190.21130325903198" r="15.778657178934353" fill="none" stroke="rgb(231, 53, 25)" stroke-width="1" transform="translate(250,250)"></circle><circle cy="-18.7999850346514" cx="-198.4229402628946" r="41.70938650211282" fill="none" stroke="rgb(231, 53, 25)" stroke-width="1" transform="translate(250,250)"></circle><circle cy="80.37401924684953" cx="168.86558510040297" r="62.049638626446615" fill="none" stroke="rgb(231, 54, 25)" stroke-width="1" transform="translate(250,250)"></circle><circle cy="-126.64918882530375" cx="-107.16535899579615" r="62.04963862644611" fill="none" stroke="rgb(231, 54, 25)" stroke-width="1" transform="translate(250,250)"></circle><circle cy="148.81720519717237" cx="25.066646712853462" r="41.70938650210826" fill="none" stroke="rgb(231, 54, 25)" stroke-width="1" transform="translate(250,250)"></circle><circle cy="-142.65847744427046" cx="61.80339887500007" r="15.77865717893054" fill="none" stroke="rgb(231, 54, 25)" stroke-width="1" transform="translate(250,250)"></circle><circle cy="109.34529411320997" cx="-136.90942118574026" r="3.0611714187235144" fill="none" stroke="rgb(231, 54, 25)" stroke-width="1" transform="translate(250,250)"></circle><circle cy="-55.218682902696706" cx="185.9552971776529" r="12.779039716212267" fill="none" stroke="rgb(231, 54, 25)" stroke-width="1" transform="translate(250,250)"></circle><circle cy="-9.418577929405116" cx="-199.60534568565362" r="37.885330240496764" fill="none" stroke="rgb(231, 54, 25)" stroke-width="1" transform="translate(250,250)"></circle><circle cy="72.26305111525936" cx="175.2613360087712" r="60.17416569056299" fill="none" stroke="rgb(231, 54, 25)" stroke-width="1" transform="translate(250,250)"></circle><circle cy="-121.35254915624513" cx="-117.5570504584891" r="63.48275200514911" fill="none" stroke="rgb(231, 54, 25)" stroke-width="1" transform="translate(250,250)"></circle><circle cy="147.34308760930477" cx="37.476262917134584" r="45.41186113322198" fill="none" stroke="rgb(232, 54, 24)" stroke-width="1" transform="translate(250,250)"></circle><circle cy="-145.28747416929411" cx="49.73797743297372" r="19.06563610284605" fill="none" stroke="rgb(232, 55, 24)" stroke-width="1" transform="translate(250,250)"></circle><circle cy="115.57698641636526" cx="-127.48479794974298" r="3.5490952274102696" fill="none" stroke="rgb(232, 55, 24)" stroke-width="1" transform="translate(250,250)"></circle><circle cy="-63.86689373475395" cx="180.96541049320825" r="10.114089473952557" fill="none" stroke="rgb(232, 55, 24)" stroke-width="1" transform="translate(250,250)"></circle><circle cy="-1.9121202543886595e-12" cx="-200" r="34.00000000000079" fill="none" stroke="rgb(232, 55, 24)" stroke-width="1" transform="translate(250,250)"></circle><circle cy="63.86689373476513" cx="180.96541049320126" r="57.8859105260507" fill="none" stroke="rgb(232, 55, 24)" stroke-width="1" transform="translate(250,250)"></circle><circle cy="-115.57698641637313" cx="-127.4847979497303" r="64.45090477258877" fill="none" stroke="rgb(232, 55, 24)" stroke-width="1" transform="translate(250,250)"></circle><circle cy="145.2874741692972" cx="49.73797743295776" r="48.934363897149474" fill="none" stroke="rgb(232, 55, 24)" stroke-width="1" transform="translate(250,250)"></circle><circle cy="-147.34308760930088" cx="37.476262917161925" r="22.588138866769995" fill="none" stroke="rgb(232, 55, 24)" stroke-width="1" transform="translate(250,250)"></circle><circle cy="121.35254915624289" cx="-117.55705045849322" r="4.517247994850404" fill="none" stroke="rgb(232, 55, 24)" stroke-width="1" transform="translate(250,250)"></circle><circle cy="-72.263051115256" cx="175.26133600877364" r="7.825834309437855" fill="none" stroke="rgb(232, 55, 24)" stroke-width="1" transform="translate(250,250)"></circle><circle cy="9.41857792939279" cx="-199.60534568565467" r="30.114669759508303" fill="none" stroke="rgb(232, 56, 24)" stroke-width="1" transform="translate(250,250)"></circle><circle cy="55.21868290270819" cx="185.95529717764686" r="55.220960283791456" fill="none" stroke="rgb(232, 56, 24)" stroke-width="1" transform="translate(250,250)"></circle><circle cy="-109.3452941132184" cx="-136.90942118572826" r="64.93882858127617" fill="none" stroke="rgb(232, 56, 24)" stroke-width="1" transform="translate(250,250)"></circle><circle cy="142.6584774442769" cx="61.8033988749736" r="52.22134282106248" fill="none" stroke="rgb(233, 56, 23)" stroke-width="1" transform="translate(250,250)"></circle><circle cy="-148.8172051971719" cx="25.06664671285852" r="26.290613497890206" fill="none" stroke="rgb(233, 56, 23)" stroke-width="1" transform="translate(250,250)"></circle><circle cy="126.64918882530174" cx="-107.16535899580045" r="5.950361373553218" fill="none" stroke="rgb(233, 56, 23)" stroke-width="1" transform="translate(250,250)"></circle><circle cy="-80.3740192468463" cx="168.86558510040572" r="5.950361373554056" fill="none" stroke="rgb(233, 56, 23)" stroke-width="1" transform="translate(250,250)"></circle><circle cy="18.79998503463915" cx="-198.42294026289667" r="26.29061349789212" fill="none" stroke="rgb(233, 56, 23)" stroke-width="1" transform="translate(250,250)"></circle><circle cy="46.352549156250966" cx="190.2113032590269" r="52.22134282106978" fill="none" stroke="rgb(233, 56, 23)" stroke-width="1" transform="translate(250,250)"></circle><circle cy="-102.6820658893121" cx="-145.79372548427128" r="64.93882858127674" fill="none" stroke="rgb(233, 57, 23)" stroke-width="1" transform="translate(250,250)"></circle><circle cy="139.46647288324317" cx="73.62491053691718" r="55.220960283784876" fill="none" stroke="rgb(233, 57, 23)" stroke-width="1" transform="translate(250,250)"></circle><circle cy="-149.7040092642407" cx="12.558103905863414" r="30.11466975950634" fill="none" stroke="rgb(233, 57, 23)" stroke-width="1" transform="translate(250,250)"></circle><circle cy="131.44600200657794" cx="-96.35073482034693" r="7.825834309436797" fill="none" stroke="rgb(233, 57, 23)" stroke-width="1" transform="translate(250,250)"></circle><circle cy="-88.16778784386604" cx="161.80339887499423" r="4.517247994851015" fill="none" stroke="rgb(233, 57, 23)" stroke-width="1" transform="translate(250,250)"></circle><circle cy="28.107197187849998" cx="-196.45745014573995" r="22.588138866778387" fill="none" stroke="rgb(233, 57, 23)" stroke-width="1" transform="translate(250,250)"></circle><circle cy="37.303483074739475" cx="193.71663222572238" r="48.93436389715738" fill="none" stroke="rgb(233, 57, 23)" stroke-width="1" transform="translate(250,250)"></circle><circle cy="-95.61359846231454" cx="-154.10264855514563" r="64.45090477259046" fill="none" stroke="rgb(233, 57, 23)" stroke-width="1" transform="translate(250,250)"></circle><circle cy="135.72405786990296" cx="85.1558583130144" r="57.88591052604944" fill="none" stroke="rgb(234, 57, 22)" stroke-width="1" transform="translate(250,250)"></circle><circle cy="-150" cx="3.824240508777319e-12" r="33.99999999999881" fill="none" stroke="rgb(234, 57, 22)" stroke-width="1" transform="translate(250,250)"></circle><circle cy="135.72405786990055" cx="-85.15585831302133" r="10.11408947394905" fill="none" stroke="rgb(234, 58, 22)" stroke-width="1" transform="translate(250,250)"></circle><circle cy="-95.61359846229698" cx="154.102648555165" r="3.5490952274113" fill="none" stroke="rgb(234, 58, 22)" stroke-width="1" transform="translate(250,250)"></circle><circle cy="37.303483074717406" cx="-193.7166322257299" r="19.06563610285087" fill="none" stroke="rgb(234, 58, 22)" stroke-width="1" transform="translate(250,250)"></circle><circle cy="28.107197187872384" cx="196.45745014573427" r="45.411861133230374" fill="none" stroke="rgb(234, 58, 22)" stroke-width="1" transform="translate(250,250)"></circle><circle cy="-88.16778784388448" cx="-161.80339887497638" r="63.482752005151895" fill="none" stroke="rgb(234, 58, 22)" stroke-width="1" transform="translate(250,250)"></circle><circle cy="131.4460020065807" cx="96.35073482034024" r="60.174165690561935" fill="none" stroke="rgb(234, 58, 22)" stroke-width="1" transform="translate(250,250)"></circle><circle cy="-149.70400926424108" cx="-12.558103905855777" r="37.88533024049131" fill="none" stroke="rgb(234, 58, 22)" stroke-width="1" transform="translate(250,250)"></circle><circle cy="139.4664728832348" cx="-73.62491053694544" r="12.779039716208256" fill="none" stroke="rgb(234, 58, 22)" stroke-width="1" transform="translate(250,250)"></circle><circle cy="-102.68206588929549" cx="145.79372548429208" r="3.061171418723859" fill="none" stroke="rgb(234, 58, 22)" stroke-width="1" transform="translate(250,250)"></circle><circle cy="46.352549156229294" cx="-190.21130325903627" r="15.778657178937841" fill="none" stroke="rgb(234, 59, 22)" stroke-width="1" transform="translate(250,250)"></circle><circle cy="18.79998503466176" cx="198.42294026289284" r="41.709386502117006" fill="none" stroke="rgb(234, 59, 22)" stroke-width="1" transform="translate(250,250)"></circle><circle cy="-80.37401924685115" cx="-168.8655851004016" r="62.04963862644695" fill="none" stroke="rgb(234, 59, 22)" stroke-width="1" transform="translate(250,250)"></circle><circle cy="126.64918882530479" cx="107.16535899579401" r="62.04963862644577" fill="none" stroke="rgb(235, 59, 21)" stroke-width="1" transform="translate(250,250)"></circle><circle cy="-148.81720519717263" cx="-25.066646712850932" r="41.7093865021075" fill="none" stroke="rgb(235, 59, 21)" stroke-width="1" transform="translate(250,250)"></circle><circle cy="142.65847744426986" cx="-61.8033988750025" r="15.778657178929901" fill="none" stroke="rgb(235, 59, 21)" stroke-width="1" transform="translate(250,250)"></circle><circle cy="-109.34529411320281" cx="136.9094211857504" r="3.0611714187232444" fill="none" stroke="rgb(235, 59, 21)" stroke-width="1" transform="translate(250,250)"></circle><circle cy="55.21868290268701" cx="-185.95529717765805" r="12.779039716215408" fill="none" stroke="rgb(235, 59, 21)" stroke-width="1" transform="translate(250,250)"></circle><circle cy="9.418577929398513" cx="199.60534568565419" r="37.88533024049405" fill="none" stroke="rgb(235, 59, 21)" stroke-width="1" transform="translate(250,250)"></circle><circle cy="-72.26305111526105" cx="-175.26133600876997" r="60.17416569056341" fill="none" stroke="rgb(235, 59, 21)" stroke-width="1" transform="translate(250,250)"></circle><circle cy="121.35254915624627" cx="117.55705045848703" r="63.48275200514886" fill="none" stroke="rgb(235, 60, 21)" stroke-width="1" transform="translate(250,250)"></circle><circle cy="-147.34308760930514" cx="-37.476262917132075" r="45.41186113322125" fill="none" stroke="rgb(235, 60, 21)" stroke-width="1" transform="translate(250,250)"></circle><circle cy="145.28747416929156" cx="-49.73797743298719" r="19.06563610284227" fill="none" stroke="rgb(235, 60, 21)" stroke-width="1" transform="translate(250,250)"></circle><circle cy="-115.5769864163586" cx="127.48479794975371" r="3.549095227409463" fill="none" stroke="rgb(235, 60, 21)" stroke-width="1" transform="translate(250,250)"></circle><circle cy="63.866893734744515" cx="-180.9654104932142" r="10.114089473955303" fill="none" stroke="rgb(235, 60, 21)" stroke-width="1" transform="translate(250,250)"></circle></svg>