<svg width="225" height="150" xmlns="http://www.w3.org/2000/svg">
<circle cy="-34.49187060173814" cx="-72.3964325748984" r="13" fill="none" stroke="grey" stroke-width="1" transform="translate(112.5,75)"></circle><circle cy="27.80227757231254" cx="-83.11518180915174" r="8.742207084349268" fill="none" stroke="grey" stroke-width="1" transform="translate(112.5,75)"></circle><circle cy="46.621628497399485" cx="36.13440223667569" r="20.705132427757903" fill="none" stroke="grey" stroke-width="1" transform="translate(112.5,75)"></circle><circle cy="-7.4618912530963115" cx="98.88013306882156" r="3.314168388713684" fill="none" stroke="grey" stroke-width="1" transform="translate(112.5,75)"></circle><circle cy="-49.87715078719733" cx="7.005663238032596" r="22.82287250728688" fill="none" stroke="grey" stroke-width="1" transform="translate(112.5,75)"></circle><circle cy="-14.298835435590487" cx="-95.82365689506744" r="4.909830056250566" fill="none" stroke="grey" stroke-width="1" transform="translate(112.5,75)"></circle><circle cy="43.63876216696637" cx="-48.81222947315333" r="17.81753674101712" fill="none" stroke="grey" stroke-width="1" transform="translate(112.5,75)"></circle><circle cy="33.33783749486037" cx="74.52754098093621" r="12.372094804706878" fill="none" stroke="grey" stroke-width="1" transform="translate(112.5,75)"></circle><circle cy="-29.093914302406453" cx="81.32758819894339" r="9.31875447315317" fill="none" stroke="grey" stroke-width="1" transform="translate(112.5,75)"></circle><circle cy="-46.031119036540574" cx="-39.045413571574926" r="20.289686274214183" fill="none" stroke="grey" stroke-width="1" transform="translate(112.5,75)"></circle><circle cy="9.01115927892415" cx="-98.36257435528736" r="3.489434837048421" fill="none" stroke="grey" stroke-width="1" transform="translate(112.5,75)"></circle><circle cy="49.9625660242307" cx="-3.868848032367119" r="22.921147013144775" fill="none" stroke="grey" stroke-width="1" transform="translate(112.5,75)"></circle><circle cy="12.786832923104619" cx="96.67464825478514" r="4.556720744979893" fill="none" stroke="grey" stroke-width="1" transform="translate(112.5,75)"></circle><circle cy="-44.383843662146525" cx="46.04669029470568" r="18.358267949789862" fill="none" stroke="grey" stroke-width="1" transform="translate(112.5,75)"></circle><circle cy="-32.15090396730061" cx="-76.58509970184578" r="11.746667664356982" fill="none" stroke="grey" stroke-width="1" transform="translate(112.5,75)"></circle><circle cy="30.35683885163445" cx="-79.45973407798184" r="9.909830056250328" fill="none" stroke="grey" stroke-width="1" transform="translate(112.5,75)"></circle><circle cy="45.39518241859692" cx="41.917891797289094" r="19.845471059286965" fill="none" stroke="grey" stroke-width="1" transform="translate(112.5,75)"></circle><circle cy="-10.551534378474749" cx="97.7479436563218" r="3.702235141117482" fill="none" stroke="grey" stroke-width="1" transform="translate(112.5,75)"></circle><circle cy="-49.99867424065189" cx="0.7282147407832499" r="22.980267284282704" fill="none" stroke="grey" stroke-width="1" transform="translate(112.5,75)"></circle><circle cy="-11.262211350296694" cx="-97.43023340834709" r="4.23693319956141" fill="none" stroke="grey" stroke-width="1" transform="translate(112.5,75)"></circle><circle cy="45.08512366215868" cx="-43.23570859222081" r="18.877852522924506" fill="none" stroke="grey" stroke-width="1" transform="translate(112.5,75)"></circle><circle cy="30.932241379150767" cx="78.56707817558072" r="11.12618685414293" fill="none" stroke="grey" stroke-width="1" transform="translate(112.5,75)"></circle><circle cy="-31.58980486594202" cx="77.51346279277442" r="10.513101128351376" fill="none" stroke="grey" stroke-width="1" transform="translate(112.5,75)"></circle><circle cy="-44.714446236232746" cx="-44.74900212460838" r="19.3742398974871" fill="none" stroke="grey" stroke-width="1" transform="translate(112.5,75)"></circle><circle cy="12.081496387495278" cx="-97.03684753822" r="3.951729475339736" fill="none" stroke="grey" stroke-width="1" transform="translate(112.5,75)"></circle><circle cy="49.985439802010625" cx="2.413137210829211" r="23" fill="none" stroke="grey" stroke-width="1" transform="translate(112.5,75)"></circle><circle cy="9.726475334588933" cx="98.08966668442977" r="3.95172947533991" fill="none" stroke="grey" stroke-width="1" transform="translate(112.5,75)"></circle><circle cy="-45.74191008830893" cx="40.38205846526706" r="19.374239897486564" fill="none" stroke="grey" stroke-width="1" transform="translate(112.5,75)"></circle><circle cy="-29.6830524032556" cx="-80.47152042867295" r="10.513101128351499" fill="none" stroke="grey" stroke-width="1" transform="translate(112.5,75)"></circle><circle cy="32.79159555673025" cx="-75.49069507810427" r="11.126186854142524" fill="none" stroke="grey" stroke-width="1" transform="translate(112.5,75)"></circle><circle cy="43.98958229387424" cx="47.53595058944192" r="18.877852522925068" fill="none" stroke="grey" stroke-width="1" transform="translate(112.5,75)"></circle><circle cy="-13.599535418198094" cx="96.22998776699862" r="4.236933199561349" fill="none" stroke="grey" stroke-width="1" transform="translate(112.5,75)"></circle><circle cy="-49.922875769100045" cx="-5.55210768735759" r="22.98026728428273" fill="none" stroke="grey" stroke-width="1" transform="translate(112.5,75)"></circle><circle cy="-8.181140462019629" cx="-98.65229730200316" r="3.702235141117635" fill="none" stroke="grey" stroke-width="1" transform="translate(112.5,75)"></circle><circle cy="46.35355477168977" cx="-37.48855612199311" r="19.845471059286872" fill="none" stroke="grey" stroke-width="1" transform="translate(112.5,75)"></circle><circle cy="28.404569838316217" cx="82.2965470065474" r="9.909830056250719" fill="none" stroke="grey" stroke-width="1" transform="translate(112.5,75)"></circle><circle cy="-33.96102490167973" cx="73.39342716149694" r="11.746667664356574" fill="none" stroke="grey" stroke-width="1" transform="translate(112.5,75)"></circle><circle cy="-43.22130594471834" cx="-50.27598681012855" r="18.35826794978997" fill="none" stroke="grey" stroke-width="1" transform="translate(112.5,75)"></circle><circle cy="15.104153349334965" cx="-95.32816061583846" r="4.556720744979749" fill="none" stroke="grey" stroke-width="1" transform="translate(112.5,75)"></circle><circle cy="49.811043885067356" cx="8.685598903908382" r="22.921147013144825" fill="none" stroke="grey" stroke-width="1" transform="translate(112.5,75)"></circle><circle cy="6.627731791532571" cx="99.11757001257665" r="3.4894348370486377" fill="none" stroke="grey" stroke-width="1" transform="translate(112.5,75)"></circle><circle cy="-46.91945409284346" cx="34.558057099875" r="20.289686274214" fill="none" stroke="grey" stroke-width="1" transform="translate(112.5,75)"></circle><circle cy="-27.098055392271707" cx="-84.04035682830896" r="9.318754473153554" fill="none" stroke="grey" stroke-width="1" transform="translate(112.5,75)"></circle><circle cy="35.09693881521756" cx="-71.22372879317327" r="12.372094804706325" fill="none" stroke="grey" stroke-width="1" transform="translate(112.5,75)"></circle><circle cy="42.410375384766525" cx="52.966406701727074" r="17.817536741017292" fill="none" stroke="grey" stroke-width="1" transform="translate(112.5,75)"></circle><circle cy="-16.59386530466258" cx="94.33225607925881" r="4.909830056250325" fill="none" stroke="grey" stroke-width="1" transform="translate(112.5,75)"></circle><circle cy="-49.65005451448027" cx="-11.81051848296892" r="22.822872507286984" fill="none" stroke="grey" stroke-width="1" transform="translate(112.5,75)"></circle><circle cy="-5.067782349944433" cx="-99.48502564815655" r="3.3141683887137248" fill="none" stroke="grey" stroke-width="1" transform="translate(112.5,75)"></circle><circle cy="47.43904957746188" cx="-31.593453447644134" r="20.705132427757682" fill="none" stroke="grey" stroke-width="1" transform="translate(112.5,75)"></circle><circle cy="25.764798437142915" cx="85.70122896419625" r="8.742207084349737" fill="none" stroke="grey" stroke-width="1" transform="translate(112.5,75)"></circle><circle cy="-36.19821628744853" cx="68.98374120347768" r="12.999999999999872" fill="none" stroke="grey" stroke-width="1" transform="translate(112.5,75)"></circle><circle cy="-41.557590904576635" cx="-55.60455514462278" r="17.25779291565101" fill="none" stroke="grey" stroke-width="1" transform="translate(112.5,75)"></circle><circle cy="18.06720111833614" cx="-93.24325699480029" r="5.294867572241791" fill="none" stroke="grey" stroke-width="1" transform="translate(112.5,75)"></circle><circle cy="49.44006653441113" cx="14.923782506187951" r="22.68583161128648" fill="none" stroke="grey" stroke-width="1" transform="translate(112.5,75)"></circle><circle cy="3.502831619019097" cx="99.75430157439428" r="3.177127492713275" fill="none" stroke="grey" stroke-width="1" transform="translate(112.5,75)"></circle><circle cy="-47.91182844753364" cx="28.597670871181585" r="21.090169943749526" fill="none" stroke="grey" stroke-width="1" transform="translate(112.5,75)"></circle><circle cy="-24.40611473657725" cx="-87.27752433393208" r="8.182463258982933" fill="none" stroke="grey" stroke-width="1" transform="translate(112.5,75)"></circle><circle cy="37.26377049046742" cx="-66.67567498972228" r="13.627905195292852" fill="none" stroke="grey" stroke-width="1" transform="translate(112.5,75)"></circle><circle cy="40.6637940994727" cx="58.18782860481008" r="16.681245526847214" fill="none" stroke="grey" stroke-width="1" transform="translate(112.5,75)"></circle><circle cy="-19.522706785785534" cx="92.0622380730828" r="5.71031372578544" fill="none" stroke="grey" stroke-width="1" transform="translate(112.5,75)"></circle><circle cy="-49.18128717764413" cx="-18.022318557843484" r="22.510565162951792" fill="none" stroke="grey" stroke-width="1" transform="translate(112.5,75)"></circle><circle cy="-1.9344240161835229" cx="-99.9251320484614" r="3.078852986855207" fill="none" stroke="grey" stroke-width="1" transform="translate(112.5,75)"></circle><circle cy="48.33732412739239" cx="-25.57366584621054" r="21.443279255020116" fill="none" stroke="grey" stroke-width="1" transform="translate(112.5,75)"></circle><circle cy="23.023345147353755" cx="88.7676873242921" r="7.641732050210247" fill="none" stroke="grey" stroke-width="1" transform="translate(112.5,75)"></circle><circle cy="-38.29254985092177" cx="64.30180793460386" r="14.25333233564261" fill="none" stroke="grey" stroke-width="1" transform="translate(112.5,75)"></circle><circle cy="-39.72986703899025" cx="-60.713677703270655" r="16.090169943750066" fill="none" stroke="grey" stroke-width="1" transform="translate(112.5,75)"></circle><circle cy="20.958945898644902" cx="-90.79036483719352" r="6.1545289407125265" fill="none" stroke="grey" stroke-width="1" transform="translate(112.5,75)"></circle><circle cy="48.87397182816097" cx="21.103068756948872" r="22.29776485888288" fill="none" stroke="grey" stroke-width="1" transform="translate(112.5,75)"></circle><circle cy="0.3641073703926542" cx="99.99734848130376" r="3.0197327157172857" fill="none" stroke="grey" stroke-width="1" transform="translate(112.5,75)"></circle><circle cy="-48.71511670417331" cx="22.524422700595395" r="21.76306680043853" fill="none" stroke="grey" stroke-width="1" transform="translate(112.5,75)"></circle><circle cy="-21.617854296109414" cx="-90.17024732431832" r="7.122147477075597" fill="none" stroke="grey" stroke-width="1" transform="translate(112.5,75)"></circle><circle cy="39.2835390877906" cx="-61.86448275830091" r="14.873813145856666" fill="none" stroke="grey" stroke-width="1" transform="translate(112.5,75)"></circle><circle cy="38.75673139638696" cx="63.179609731884646" r="15.486898871649299" fill="none" stroke="grey" stroke-width="1" transform="translate(112.5,75)"></circle><circle cy="-22.374501062303906" cx="89.42889247246578" r="6.6257601025123645" fill="none" stroke="grey" stroke-width="1" transform="translate(112.5,75)"></circle><circle cy="-48.51842376911008" cx="-24.16299277498994" r="22.048270524660197" fill="none" stroke="grey" stroke-width="1" transform="translate(112.5,75)"></circle><circle cy="1.2065686054135767" cx="-99.9708796040213" r="3" fill="none" stroke="grey" stroke-width="1" transform="translate(112.5,75)"></circle><circle cy="49.0448333422151" cx="-19.452950669175703" r="22.048270524660037" fill="none" stroke="grey" stroke-width="1" transform="translate(112.5,75)"></circle><circle cy="20.19102923263252" cx="91.48382017661875" r="6.625760102513534" fill="none" stroke="grey" stroke-width="1" transform="translate(112.5,75)"></circle><circle cy="-40.235760214337134" cx="59.366104806509426" r="15.486898871647828" fill="none" stroke="grey" stroke-width="1" transform="translate(112.5,75)"></circle><circle cy="-37.74534753905235" cx="-65.58319111346003" r="14.87381314585816" fill="none" stroke="grey" stroke-width="1" transform="translate(112.5,75)"></circle><circle cy="23.767975294720678" cx="-87.9791645877488" r="7.1221474770743685" fill="none" stroke="grey" stroke-width="1" transform="translate(112.5,75)"></circle><circle cy="48.11499388349939" cx="27.199070836395578" r="21.763066800438715" fill="none" stroke="grey" stroke-width="1" transform="translate(112.5,75)"></circle><circle cy="-2.7760538436770577" cx="99.84575153820028" r="3.0197327157172626" fill="none" stroke="grey" stroke-width="1" transform="translate(112.5,75)"></circle><circle cy="-49.32614865100199" cx="16.36228092403428" r="22.297764858882317" fill="none" stroke="grey" stroke-width="1" transform="translate(112.5,75)"></circle><circle cy="-18.74427806099553" cx="-92.70710954338035" r="6.154528940713634" fill="none" stroke="grey" stroke-width="1" transform="translate(112.5,75)"></circle><circle cy="41.148273503274325" cx="-56.80913967663063" r="16.09016994374862" fill="none" stroke="grey" stroke-width="1" transform="translate(112.5,75)"></circle><circle cy="36.69671358074773" cx="67.92204980336106" r="14.253332335644117" fill="none" stroke="grey" stroke-width="1" transform="translate(112.5,75)"></circle><circle cy="-25.137993405064" cx="86.442611889437" r="7.6417320502099235" fill="none" stroke="grey" stroke-width="1" transform="translate(112.5,75)"></circle><circle cy="-47.66408030791932" cx="-30.20830669866932" r="21.44327925502032" fill="none" stroke="grey" stroke-width="1" transform="translate(112.5,75)"></circle><circle cy="4.342799451956704" cx="-99.62208777013429" r="3.078852986855159" fill="none" stroke="grey" stroke-width="1" transform="translate(112.5,75)"></circle><circle cy="49.55878500628847" cx="-13.255463583062957" r="22.510565162951323" fill="none" stroke="grey" stroke-width="1" transform="translate(112.5,75)"></circle><circle cy="17.279028549936466" cx="93.83890818568767" r="5.710313725786479" fill="none" stroke="grey" stroke-width="1" transform="translate(112.5,75)"></circle><circle cy="-42.020178414155076" cx="54.196110784541574" r="16.6812455268458" fill="none" stroke="grey" stroke-width="1" transform="translate(112.5,75)"></circle><circle cy="-35.61186439658685" cx="-70.19387763043467" r="13.627905195293234" fill="none" stroke="grey" stroke-width="1" transform="translate(112.5,75)"></circle><circle cy="26.483203350863267" cx="-84.82075076953339" r="8.182463258982597" fill="none" stroke="grey" stroke-width="1" transform="translate(112.5,75)"></circle><circle cy="47.16612803962857" cx="33.187730609329925" r="21.09016994374975" fill="none" stroke="grey" stroke-width="1" transform="translate(112.5,75)"></circle><circle cy="-5.9052592414869665" cx="99.30010902895994" r="3.177127492712991" fill="none" stroke="grey" stroke-width="1" transform="translate(112.5,75)"></circle><circle cy="-49.74251282407839" cx="10.135564699886672" r="22.685831611286105" fill="none" stroke="grey" stroke-width="1" transform="translate(112.5,75)"></circle><circle cy="-15.796726723821017" cx="-94.87809915492444" r="5.29486757224276" fill="none" stroke="grey" stroke-width="1" transform="translate(112.5,75)"></circle><circle cy="42.85061448209869" cx="-51.52959687428395" r="17.257792915649635" fill="none" stroke="grey" stroke-width="1" transform="translate(112.5,75)"></circle><circle cy="34.491870601739066" cx="72.39643257489664" r="13.000000000000256" fill="none" stroke="grey" stroke-width="1" transform="translate(112.5,75)"></circle><circle cy="-27.802277572311123" cx="83.11518180915364" r="8.742207084348877" fill="none" stroke="grey" stroke-width="1" transform="translate(112.5,75)"></circle><circle cy="-46.621628497399236" cx="-36.13440223667698" r="20.70513242775829" fill="none" stroke="grey" stroke-width="1" transform="translate(112.5,75)"></circle><circle cy="7.461891253096471" cx="-98.88013306882151" r="3.3141683887134885" fill="none" stroke="grey" stroke-width="1" transform="translate(112.5,75)"></circle><circle cy="49.877150787197316" cx="-7.00566323803316" r="22.8228725072867" fill="none" stroke="grey" stroke-width="1" transform="translate(112.5,75)"></circle><circle cy="14.298835435588375" cx="95.82365689506871" r="4.909830056251218" fill="none" stroke="grey" stroke-width="1" transform="translate(112.5,75)"></circle><circle cy="-43.63876216696727" cx="48.81222947315009" r="17.81753674101596" fill="none" stroke="grey" stroke-width="1" transform="translate(112.5,75)"></circle><circle cy="-33.337837494859265" cx="-74.52754098093821" r="12.372094804708409" fill="none" stroke="grey" stroke-width="1" transform="translate(112.5,75)"></circle><circle cy="29.093914302407086" cx="-81.32758819894248" r="9.31875447315161" fill="none" stroke="grey" stroke-width="1" transform="translate(112.5,75)"></circle><circle cy="46.03111903654041" cx="39.045413571575715" r="20.28968627421387" fill="none" stroke="grey" stroke-width="1" transform="translate(112.5,75)"></circle><circle cy="-9.011159278924223" cx="98.36257435528735" r="3.4894348370485186" fill="none" stroke="grey" stroke-width="1" transform="translate(112.5,75)"></circle><circle cy="-49.96256602423069" cx="3.8688480323676835" r="22.921147013144775" fill="none" stroke="grey" stroke-width="1" transform="translate(112.5,75)"></circle><circle cy="-12.786832923105578" cx="-96.67464825478463" r="4.556720744979954" fill="none" stroke="grey" stroke-width="1" transform="translate(112.5,75)"></circle><circle cy="44.38384366214591" cx="-46.04669029470808" r="18.358267949789646" fill="none" stroke="grey" stroke-width="1" transform="translate(112.5,75)"></circle><circle cy="32.15090396730218" cx="76.58509970184313" r="11.746667664357517" fill="none" stroke="grey" stroke-width="1" transform="translate(112.5,75)"></circle><circle cy="-30.356838851632816" cx="79.45973407798434" r="9.909830056249815" fill="none" stroke="grey" stroke-width="1" transform="translate(112.5,75)"></circle><circle cy="-45.39518241859808" cx="-41.917891797284064" r="19.845471059287565" fill="none" stroke="grey" stroke-width="1" transform="translate(112.5,75)"></circle><circle cy="10.551534378471345" cx="-97.74794365632327" r="3.7022351411170753" fill="none" stroke="grey" stroke-width="1" transform="translate(112.5,75)"></circle><circle cy="49.998674240651894" cx="-0.7282147407802615" r="22.980267284282633" fill="none" stroke="grey" stroke-width="1" transform="translate(112.5,75)"></circle><circle cy="11.262211350295239" cx="97.43023340834776" r="4.236933199562081" fill="none" stroke="grey" stroke-width="1" transform="translate(112.5,75)"></circle><circle cy="-45.08512366215902" cx="43.235708592219396" r="18.87785252292338" fill="none" stroke="grey" stroke-width="1" transform="translate(112.5,75)"></circle><circle cy="-30.93224137915071" cx="-78.56707817558082" r="11.126186854144574" fill="none" stroke="grey" stroke-width="1" transform="translate(112.5,75)"></circle><circle cy="31.589804865942078" cx="-77.5134627927743" r="10.513101128351678" fill="none" stroke="grey" stroke-width="1" transform="translate(112.5,75)"></circle><circle cy="44.71444623623303" cx="44.749002124607244" r="19.37423989748686" fill="none" stroke="grey" stroke-width="1" transform="translate(112.5,75)"></circle><circle cy="-12.081496387494662" cx="97.03684753822031" r="3.9517294753397483" fill="none" stroke="grey" stroke-width="1" transform="translate(112.5,75)"></circle><circle cy="-49.98543980201065" cx="-2.413137210826516" r="23" fill="none" stroke="grey" stroke-width="1" transform="translate(112.5,75)"></circle><circle cy="-9.726475334590951" cx="-98.08966668442898" r="3.9517294753400183" fill="none" stroke="grey" stroke-width="1" transform="translate(112.5,75)"></circle><circle cy="45.741910088308096" cx="-40.38205846527082" r="19.37423989748637" fill="none" stroke="grey" stroke-width="1" transform="translate(112.5,75)"></circle><circle cy="29.68305240325725" cx="80.47152042867052" r="10.513101128352297" fill="none" stroke="grey" stroke-width="1" transform="translate(112.5,75)"></circle><circle cy="-32.79159555672763" cx="75.49069507810883" r="11.126186854141716" fill="none" stroke="grey" stroke-width="1" transform="translate(112.5,75)"></circle><circle cy="-43.9895822938759" cx="-47.53595058943579" r="18.877852522925735" fill="none" stroke="grey" stroke-width="1" transform="translate(112.5,75)"></circle><circle cy="13.599535418194748" cx="-96.22998776700051" r="4.236933199560678" fill="none" stroke="grey" stroke-width="1" transform="translate(112.5,75)"></circle><circle cy="49.922875769100315" cx="5.552107687347804" r="22.980267284282817" fill="none" stroke="grey" stroke-width="1" transform="translate(112.5,75)"></circle><circle cy="8.181140462023063" cx="98.65229730200203" r="3.7022351411181464" fill="none" stroke="grey" stroke-width="1" transform="translate(112.5,75)"></circle><circle cy="-46.35355477168793" cx="37.4885561220022" r="19.845471059285444" fill="none" stroke="grey" stroke-width="1" transform="translate(112.5,75)"></circle><circle cy="-28.40456983832025" cx="-82.29654700654183" r="9.90983005625042" fill="none" stroke="grey" stroke-width="1" transform="translate(112.5,75)"></circle><circle cy="33.961024901676126" cx="-73.39342716150361" r="11.746667664356885" fill="none" stroke="grey" stroke-width="1" transform="translate(112.5,75)"></circle><circle cy="43.221305944721514" cx="50.27598681011762" r="18.358267949790182" fill="none" stroke="grey" stroke-width="1" transform="translate(112.5,75)"></circle><circle cy="-15.10415334932894" cx="95.32816061584228" r="4.556720744979611" fill="none" stroke="grey" stroke-width="1" transform="translate(112.5,75)"></circle><circle cy="-49.81104388506741" cx="-8.685598903907112" r="22.921147013144857" fill="none" stroke="grey" stroke-width="1" transform="translate(112.5,75)"></circle><circle cy="-6.627731791534612" cx="-99.11757001257611" r="3.489434837048714" fill="none" stroke="grey" stroke-width="1" transform="translate(112.5,75)"></circle><circle cy="46.91945409284274" cx="-34.558057099878866" r="20.289686274213434" fill="none" stroke="grey" stroke-width="1" transform="translate(112.5,75)"></circle><circle cy="27.09805539227344" cx="84.04035682830673" r="9.318754473154318" fill="none" stroke="grey" stroke-width="1" transform="translate(112.5,75)"></circle><circle cy="-35.09693881521508" cx="71.22372879317815" r="12.372094804705505" fill="none" stroke="grey" stroke-width="1" transform="translate(112.5,75)"></circle><circle cy="-42.410375384768365" cx="-52.96640670172117" r="17.81753674101851" fill="none" stroke="grey" stroke-width="1" transform="translate(112.5,75)"></circle><circle cy="16.593865304659296" cx="-94.33225607926113" r="4.909830056249506" fill="none" stroke="grey" stroke-width="1" transform="translate(112.5,75)"></circle><circle cy="49.65005451448068" cx="11.810518482962012" r="22.822872507287244" fill="none" stroke="grey" stroke-width="1" transform="translate(112.5,75)"></circle><circle cy="5.067782349949308" cx="99.48502564815556" r="3.3141683887142115" fill="none" stroke="grey" stroke-width="1" transform="translate(112.5,75)"></circle><circle cy="-47.43904957746033" cx="31.59345344765343" r="20.70513242775788" fill="none" stroke="grey" stroke-width="1" transform="translate(112.5,75)"></circle><circle cy="-25.764798437147117" cx="-85.70122896419122" r="8.742207084349452" fill="none" stroke="grey" stroke-width="1" transform="translate(112.5,75)"></circle><circle cy="36.198216287444176" cx="-68.98374120348683" r="12.999999999999618" fill="none" stroke="grey" stroke-width="1" transform="translate(112.5,75)"></circle><circle cy="41.55759090457699" cx="55.60455514462173" r="17.25779291565124" fill="none" stroke="grey" stroke-width="1" transform="translate(112.5,75)"></circle><circle cy="-18.067201118335543" cx="93.24325699480075" r="5.294867572241629" fill="none" stroke="grey" stroke-width="1" transform="translate(112.5,75)"></circle><circle cy="-49.44006653441122" cx="-14.923782506186695" r="22.685831611286545" fill="none" stroke="grey" stroke-width="1" transform="translate(112.5,75)"></circle><circle cy="-3.502831619019732" cx="-99.75430157439419" r="3.177127492713323" fill="none" stroke="grey" stroke-width="1" transform="translate(112.5,75)"></circle><circle cy="47.91182844753264" cx="-28.597670871188253" r="21.09016994374871" fill="none" stroke="grey" stroke-width="1" transform="translate(112.5,75)"></circle><circle cy="24.40611473658029" cx="87.27752433392868" r="8.182463258984152" fill="none" stroke="grey" stroke-width="1" transform="translate(112.5,75)"></circle><circle cy="-37.2637704904651" cx="66.67567498972747" r="13.627905195291463" fill="none" stroke="grey" stroke-width="1" transform="translate(112.5,75)"></circle><circle cy="-40.66379409947473" cx="-58.187828604804416" r="16.681245526848507" fill="none" stroke="grey" stroke-width="1" transform="translate(112.5,75)"></circle><circle cy="19.52270678578233" cx="-92.06223807308551" r="5.710313725784487" fill="none" stroke="grey" stroke-width="1" transform="translate(112.5,75)"></circle><circle cy="49.181287177644755" cx="18.022318557836638" r="22.510565162952226" fill="none" stroke="grey" stroke-width="1" transform="translate(112.5,75)"></circle><circle cy="1.93442401618984" cx="99.92513204846092" r="3.078852986855239" fill="none" stroke="grey" stroke-width="1" transform="translate(112.5,75)"></circle><circle cy="-48.33732412739078" cx="25.573665846222767" r="21.44327925501998" fill="none" stroke="grey" stroke-width="1" transform="translate(112.5,75)"></circle><circle cy="-23.023345147359365" cx="-88.76768732428629" r="7.641732050210461" fill="none" stroke="grey" stroke-width="1" transform="translate(112.5,75)"></circle><circle cy="38.29254985092136" cx="-64.30180793460484" r="14.253332335642357" fill="none" stroke="grey" stroke-width="1" transform="translate(112.5,75)"></circle><circle cy="39.72986703899236" cx="60.71367770326512" r="16.090169943750308" fill="none" stroke="grey" stroke-width="1" transform="translate(112.5,75)"></circle><circle cy="-20.958945898641744" cx="90.79036483719642" r="6.154528940712341" fill="none" stroke="grey" stroke-width="1" transform="translate(112.5,75)"></circle><circle cy="-48.87397182816171" cx="-21.10306875694207" r="22.29776485888297" fill="none" stroke="grey" stroke-width="1" transform="translate(112.5,75)"></circle><circle cy="-0.36410737039613356" cx="-99.9973484813037" r="3.0197327157173746" fill="none" stroke="grey" stroke-width="1" transform="translate(112.5,75)"></circle><circle cy="48.71511670417253" cx="-22.524422700602177" r="21.76306680043786" fill="none" stroke="grey" stroke-width="1" transform="translate(112.5,75)"></circle><circle cy="21.61785429611511" cx="90.17024732431285" r="7.122147477076723" fill="none" stroke="grey" stroke-width="1" transform="translate(112.5,75)"></circle><circle cy="-39.28353908778669" cx="61.86448275831084" r="14.8738131458553" fill="none" stroke="grey" stroke-width="1" transform="translate(112.5,75)"></circle><circle cy="-38.756731396390954" cx="-63.17960973187484" r="15.486898871650647" fill="none" stroke="grey" stroke-width="1" transform="translate(112.5,75)"></circle><circle cy="22.37450106229825" cx="-89.42889247247143" r="6.625760102513044" fill="none" stroke="grey" stroke-width="1" transform="translate(112.5,75)"></circle><circle cy="48.51842376911161" cx="24.16299277497767" r="22.048270524660307" fill="none" stroke="grey" stroke-width="1" transform="translate(112.5,75)"></circle><circle cy="-1.2065686054072569" cx="99.9708796040216" r="3" fill="none" stroke="grey" stroke-width="1" transform="translate(112.5,75)"></circle><circle cy="-49.044833342213316" cx="19.45295066919368" r="22.048270524659927" fill="none" stroke="grey" stroke-width="1" transform="translate(112.5,75)"></circle><circle cy="-20.191029232635703" cx="-91.48382017661594" r="6.6257601025137305" fill="none" stroke="grey" stroke-width="1" transform="translate(112.5,75)"></circle><circle cy="40.235760214335066" cx="-59.36610480651502" r="15.486898871647579" fill="none" stroke="grey" stroke-width="1" transform="translate(112.5,75)"></circle><circle cy="37.74534753905463" cx="65.58319111345476" r="14.87381314585841" fill="none" stroke="grey" stroke-width="1" transform="translate(112.5,75)"></circle><circle cy="-23.767975294717615" cx="87.9791645877521" r="7.1221474770741615" fill="none" stroke="grey" stroke-width="1" transform="translate(112.5,75)"></circle><circle cy="-48.11499388350034" cx="-27.199070836388877" r="21.763066800439383" fill="none" stroke="grey" stroke-width="1" transform="translate(112.5,75)"></circle><circle cy="2.7760538436735835" cx="-99.84575153820067" r="3.0197327157171756" fill="none" stroke="grey" stroke-width="1" transform="translate(112.5,75)"></circle><circle cy="49.32614865100096" cx="-16.362280924046754" r="22.297764858881806" fill="none" stroke="grey" stroke-width="1" transform="translate(112.5,75)"></circle><circle cy="18.744278061001392" cx="92.70710954337562" r="6.154528940714648" fill="none" stroke="grey" stroke-width="1" transform="translate(112.5,75)"></circle><circle cy="-41.14827350327074" cx="56.80913967664103" r="16.090169943747295" fill="none" stroke="grey" stroke-width="1" transform="translate(112.5,75)"></circle><circle cy="-36.696713580752025" cx="-67.9220498033518" r="14.253332335643242" fill="none" stroke="grey" stroke-width="1" transform="translate(112.5,75)"></circle><circle cy="25.137993405058534" cx="-86.44261188944336" r="7.641732050209708" fill="none" stroke="grey" stroke-width="1" transform="translate(112.5,75)"></circle><circle cy="47.66408030792123" cx="30.208306698657267" r="21.443279255020457" fill="none" stroke="grey" stroke-width="1" transform="translate(112.5,75)"></circle><circle cy="-4.342799451947575" cx="99.62208777013586" r="3.078852986855127" fill="none" stroke="grey" stroke-width="1" transform="translate(112.5,75)"></circle><circle cy="-49.558785006288005" cx="13.255463583069854" r="22.510565162951245" fill="none" stroke="grey" stroke-width="1" transform="translate(112.5,75)"></circle><circle cy="-17.27902854993973" cx="-93.83890818568528" r="5.710313725786655" fill="none" stroke="grey" stroke-width="1" transform="translate(112.5,75)"></circle><circle cy="42.02017841415319" cx="-54.19611078454742" r="16.681245526845565" fill="none" stroke="grey" stroke-width="1" transform="translate(112.5,75)"></circle><circle cy="35.6118643965893" cx="70.19387763042972" r="13.627905195294623" fill="none" stroke="grey" stroke-width="1" transform="translate(112.5,75)"></circle><circle cy="-26.48320335086031" cx="84.82075076953709" r="8.182463258981379" fill="none" stroke="grey" stroke-width="1" transform="translate(112.5,75)"></circle><circle cy="-47.166128039630664" cx="-33.187730609317995" r="21.090169943750567" fill="none" stroke="grey" stroke-width="1" transform="translate(112.5,75)"></circle><circle cy="5.905259241480689" cx="-99.30010902896143" r="3.1771274927127298" fill="none" stroke="grey" stroke-width="1" transform="translate(112.5,75)"></circle><circle cy="49.74251282407774" cx="-10.13556469989925" r="22.685831611285757" fill="none" stroke="grey" stroke-width="1" transform="translate(112.5,75)"></circle><circle cy="15.796726723827017" cx="94.87809915492046" r="5.294867572243646" fill="none" stroke="grey" stroke-width="1" transform="translate(112.5,75)"></circle><circle cy="-42.85061448209544" cx="51.52959687429478" r="17.257792915650434" fill="none" stroke="grey" stroke-width="1" transform="translate(112.5,75)"></circle><circle cy="-34.49187060174365" cx="-72.39643257488791" r="13.00000000000051" fill="none" stroke="grey" stroke-width="1" transform="translate(112.5,75)"></circle><circle cy="27.80227757230587" cx="-83.11518180916066" r="8.742207084348646" fill="none" stroke="grey" stroke-width="1" transform="translate(112.5,75)"></circle><circle cy="46.62162849740255" cx="36.13440223665989" r="20.70513242775845" fill="none" stroke="grey" stroke-width="1" transform="translate(112.5,75)"></circle><circle cy="-7.461891253093031" cx="98.88013306882254" r="3.3141683887134246" fill="none" stroke="grey" stroke-width="1" transform="translate(112.5,75)"></circle><circle cy="-49.877150787197074" cx="7.005663238040101" r="22.822872507286654" fill="none" stroke="grey" stroke-width="1" transform="translate(112.5,75)"></circle><circle cy="-14.298835435594434" cx="-95.82365689506508" r="4.9098300562513675" fill="none" stroke="grey" stroke-width="1" transform="translate(112.5,75)"></circle><circle cy="43.638762166964185" cx="-48.812229473161125" r="17.817536741015736" fill="none" stroke="grey" stroke-width="1" transform="translate(112.5,75)"></circle><circle cy="33.337837494863976" cx="74.52754098092977" r="12.372094804708663" fill="none" stroke="grey" stroke-width="1" transform="translate(112.5,75)"></circle><circle cy="-29.093914302401952" cx="81.32758819894984" r="9.318754473151374" fill="none" stroke="grey" stroke-width="1" transform="translate(112.5,75)"></circle><circle cy="-46.03111903654066" cx="-39.04541357157454" r="20.2896862742156" fill="none" stroke="grey" stroke-width="1" transform="translate(112.5,75)"></circle><circle cy="9.011159278923596" cx="-98.36257435528756" r="3.489434837047737" fill="none" stroke="grey" stroke-width="1" transform="translate(112.5,75)"></circle><circle cy="49.96256602423067" cx="-3.8688480323689567" r="22.92114701314446" fill="none" stroke="grey" stroke-width="1" transform="translate(112.5,75)"></circle><circle cy="12.786832923106195" cx="96.6746482547843" r="4.556720744981309" fill="none" stroke="grey" stroke-width="1" transform="translate(112.5,75)"></circle><circle cy="-44.38384366214561" cx="46.0466902947092" r="18.35826794978751" fill="none" stroke="grey" stroke-width="1" transform="translate(112.5,75)"></circle><circle cy="-32.15090396730266" cx="-76.58509970184231" r="11.746667664360025" fill="none" stroke="grey" stroke-width="1" transform="translate(112.5,75)"></circle><circle cy="30.35683885163231" cx="-79.45973407798512" r="9.90983005624741" fill="none" stroke="grey" stroke-width="1" transform="translate(112.5,75)"></circle><circle cy="45.395182418598345" cx="41.917891797282905" r="19.84547105928941" fill="none" stroke="grey" stroke-width="1" transform="translate(112.5,75)"></circle><circle cy="-10.551534378470723" cx="97.74794365632354" r="3.7022351411161445" fill="none" stroke="grey" stroke-width="1" transform="translate(112.5,75)"></circle><circle cy="-49.99867424065185" cx="0.7282147407929046" r="22.98026728428276" fill="none" stroke="grey" stroke-width="1" transform="translate(112.5,75)"></circle><circle cy="-11.2622113503014" cx="-97.43023340834492" r="4.236933199561108" fill="none" stroke="grey" stroke-width="1" transform="translate(112.5,75)"></circle><circle cy="45.08512366215629" cx="-43.2357085922308" r="18.877852522925014" fill="none" stroke="grey" stroke-width="1" transform="translate(112.5,75)"></circle><circle cy="30.932241379155673" cx="78.567078175573" r="11.126186854142592" fill="none" stroke="grey" stroke-width="1" transform="translate(112.5,75)"></circle><circle cy="-31.589804865937175" cx="77.5134627927823" r="10.513101128351433" fill="none" stroke="grey" stroke-width="1" transform="translate(112.5,75)"></circle><circle cy="-44.71444623623586" cx="-44.74900212459594" r="19.374239897487055" fill="none" stroke="grey" stroke-width="1" transform="translate(112.5,75)"></circle><circle cy="12.081496387488528" cx="-97.03684753822337" r="3.951729475339638" fill="none" stroke="grey" stroke-width="1" transform="translate(112.5,75)"></circle><circle cy="49.98543980201081" cx="2.4131372108138764" r="23" fill="none" stroke="grey" stroke-width="1" transform="translate(112.5,75)"></circle><circle cy="9.726475334597152" cx="98.08966668442652" r="3.9517294753401266" fill="none" stroke="grey" stroke-width="1" transform="translate(112.5,75)"></circle><circle cy="-45.741910088305545" cx="40.38205846528239" r="19.37423989748617" fill="none" stroke="grey" stroke-width="1" transform="translate(112.5,75)"></circle><circle cy="-29.683052403262337" cx="-80.47152042866301" r="10.513101128352544" fill="none" stroke="grey" stroke-width="1" transform="translate(112.5,75)"></circle><circle cy="32.791595556722854" cx="-75.49069507811711" r="11.126186854141466" fill="none" stroke="grey" stroke-width="1" transform="translate(112.5,75)"></circle><circle cy="43.989582293878904" cx="47.535950589424665" r="18.87785252292594" fill="none" stroke="grey" stroke-width="1" transform="translate(112.5,75)"></circle><circle cy="-13.599535418188664" cx="96.22998776700395" r="4.236933199560555" fill="none" stroke="grey" stroke-width="1" transform="translate(112.5,75)"></circle><circle cy="-49.92287576910066" cx="-5.552107687335179" r="22.98026728428283" fill="none" stroke="grey" stroke-width="1" transform="translate(112.5,75)"></circle><circle cy="-8.1811404620293" cx="-98.65229730199997" r="3.7022351411182406" fill="none" stroke="grey" stroke-width="1" transform="translate(112.5,75)"></circle><circle cy="46.35355477168556" cx="-37.48855612201392" r="19.84547105928526" fill="none" stroke="grey" stroke-width="1" transform="translate(112.5,75)"></circle><circle cy="28.404569838316096" cx="82.29654700654757" r="9.909830056252826" fill="none" stroke="grey" stroke-width="1" transform="translate(112.5,75)"></circle><circle cy="-33.961024901679835" cx="73.39342716149675" r="11.746667664354375" fill="none" stroke="grey" stroke-width="1" transform="translate(112.5,75)"></circle><circle cy="-43.22130594471898" cx="-50.27598681012635" r="18.35826794979232" fill="none" stroke="grey" stroke-width="1" transform="translate(112.5,75)"></circle><circle cy="15.10415334933375" cx="-95.32816061583922" r="4.556720744978257" fill="none" stroke="grey" stroke-width="1" transform="translate(112.5,75)"></circle><circle cy="49.81104388506747" cx="8.685598903905841" r="22.921147013145173" fill="none" stroke="grey" stroke-width="1" transform="translate(112.5,75)"></circle><circle cy="6.627731791535243" cx="99.11757001257594" r="3.4894348370494956" fill="none" stroke="grey" stroke-width="1" transform="translate(112.5,75)"></circle><circle cy="-46.91945409284253" cx="34.55805709988006" r="20.289686274211704" fill="none" stroke="grey" stroke-width="1" transform="translate(112.5,75)"></circle><circle cy="-27.098055392273977" cx="-84.04035682830605" r="9.31875447315667" fill="none" stroke="grey" stroke-width="1" transform="translate(112.5,75)"></circle><circle cy="35.09693881521463" cx="-71.22372879317905" r="12.37209480470298" fill="none" stroke="grey" stroke-width="1" transform="translate(112.5,75)"></circle><circle cy="42.410375384768706" cx="52.96640670172008" r="17.817536741016742" fill="none" stroke="grey" stroke-width="1" transform="translate(112.5,75)"></circle><circle cy="-16.593865304658696" cx="94.33225607926154" r="4.9098300562506925" fill="none" stroke="grey" stroke-width="1" transform="translate(112.5,75)"></circle><circle cy="-49.65005451448075" cx="-11.810518482960745" r="22.822872507286867" fill="none" stroke="grey" stroke-width="1" transform="translate(112.5,75)"></circle><circle cy="-5.067782349949942" cx="-99.48502564815543" r="3.314168388713709" fill="none" stroke="grey" stroke-width="1" transform="translate(112.5,75)"></circle><circle cy="47.439049577460125" cx="-31.59345344765464" r="20.70513242775772" fill="none" stroke="grey" stroke-width="1" transform="translate(112.5,75)"></circle><circle cy="25.764798437147668" cx="85.70122896419055" r="8.742207084349683" fill="none" stroke="grey" stroke-width="1" transform="translate(112.5,75)"></circle><circle cy="-36.19821628744373" cx="68.98374120348775" r="12.999999999999362" fill="none" stroke="grey" stroke-width="1" transform="translate(112.5,75)"></circle><circle cy="-41.55759090458051" cx="-55.60455514461121" r="17.25779291565147" fill="none" stroke="grey" stroke-width="1" transform="translate(112.5,75)"></circle><circle cy="18.06720111832965" cx="-93.24325699480532" r="5.294867572241466" fill="none" stroke="grey" stroke-width="1" transform="translate(112.5,75)"></circle><circle cy="49.44006653441217" cx="14.923782506174192" r="22.68583161128661" fill="none" stroke="grey" stroke-width="1" transform="translate(112.5,75)"></circle><circle cy="3.502831619026039" cx="99.7543015743933" r="3.177127492713371" fill="none" stroke="grey" stroke-width="1" transform="translate(112.5,75)"></circle></svg>