
<svg xmlns="http://www.w3.org/2000/svg" width="720" height="582">
  <defs>
    <filter id="tint">
      <feColorMatrix values="1.1 0 0 0 0  0 1.1 0 0 0  0 0 0.9 0 0  0 0 0 1 0"/>
    </filter>
    <filter id="splotch">
      <feTurbulence type="fractalNoise" baseFrequency="0.01" numOctaves="4"/>
      <feColorMatrix values="0 0 0 0 0, 0 0 0 0 0, 0 0 0 0 0, 0 0 0 -0.9 1.2" result="texture"/>
      <feComposite in="SourceGraphic" in2="texture" operator="in"/>
      <feGaussianBlur stdDeviation="0.7"/>
    </filter>
    <filter id="pencil">
      <feTurbulence type="fractalNoise" baseFrequency=".01" numOctaves="4"/>
      <feTurbulence baseFrequency="0.03" type="fractalNoise" numOctaves="2"/>
      <feDisplacementMap in="SourceGraphic" scale="1" xChannelSelector="R" yChannelSelector="G"/>
      <feGaussianBlur stdDeviation="0.6"/>
    </filter>
  </defs>
  <g width="360" height="582" class="left">
    <g class="mesh" filter="url(#pencil)">
      <path class="door" fill="rgba(75, 243, 181, 0.3)" stroke-width="4" filter="url(#splotch)" d="M-7.027070740779422,186.634263086878C-7.516494324214809,183.38972719337107,-8.585710195579262,379.5843755153713,53.60285359293166,436.5375227352003C115.79141738144257,493.49066995502926,241.23776082982886,411.202316072687,302.89393711088445,318.34294054309856C364.55011339194,225.48356501351006,362.4161225056649,122.0531678366754,360.9722391350326,165.2379274698362C359.52835576440026,208.422687102997,358.77457990941093,398.22260354615327,297.6078272117907,494.32651496924865C236.44107451417054,590.4304263923441,114.86134497391957,592.8383327953786,54.116664556040924,492.7004259423888C-6.6280158618377145,392.562519089399,-6.537647157344035,189.87879898038491,-7.027070740779422,186.634263086878" stroke="#2C2E34"/>
      <path class="door" fill="rgba(67, 240, 189, 0.3)" stroke-width="4" filter="url(#splotch)" d="M53.60285359293166,436.5375227352003C115.79141738144257,493.49066995502926,241.23776082982886,411.202316072687,302.89393711088445,318.34294054309856C364.55011339194,225.48356501351006,362.4161225056649,122.0531678366754,360.9722391350326,165.2379274698362C359.52835576440026,208.422687102997,358.77457990941093,398.22260354615327,357.9483353183716,392.98979988800187C357.1220907273323,387.7569962298505,356.2233774002431,187.4914724703913,295.47869698236445,87.35356561740151C234.73401656448584,-12.784341235588272,114.14336905581774,-12.79463118210873,53.31343736580146,85.29754800563117C-7.516494324214809,183.38972719337107,-8.585710195579262,379.5843755153713,53.60285359293166,436.5375227352003" stroke="#2C2E34"/>
      <path class="door" fill="rgba(60, 235, 196, 0.3)" stroke-width="4" filter="url(#splotch)" d="M302.89393711088445,318.34294054309856C364.55011339194,225.48356501351006,362.4161225056649,122.0531678366754,360.9722391350326,165.2379274698362C359.52835576440026,208.422687102997,358.77457990941093,398.22260354615327,357.9483353183716,392.98979988800187C357.1220907273323,387.7569962298505,356.2233774002431,187.4914724703913,353.9304408579353,187.84168995478254C351.6375043156275,188.19190743917378,347.9503445581011,389.1578661674154,287.1204128680849,487.25004535515535C226.2904811780686,585.3422245428952,108.31777755556244,580.5606241901334,112.05459746850251,537.0256470725814C115.79141738144257,493.49066995502926,241.23776082982886,411.202316072687,302.89393711088445,318.34294054309856" stroke="#2C2E34"/>
      <path class="door" fill="rgba(52, 230, 204, 0.3)" stroke-width="4" filter="url(#splotch)" d="M360.9722391350326,165.2379274698362C359.52835576440026,208.422687102997,358.77457990941093,398.22260354615327,357.9483353183716,392.98979988800187C357.1220907273323,387.7569962298505,356.2233774002431,187.4914724703913,353.9304408579353,187.84168995478254C351.6375043156275,188.19190743917378,347.9503445581011,389.1578661674154,291.69846551032623,391.5913863957635C235.44658646255118,394.02490662411157,126.62998812452759,197.92598835256618,130.36680803746765,154.39101123501413C134.1036279504077,110.8560341174621,250.39386611431144,219.8849981539034,307.47198975312574,222.6842815837067C364.55011339194,225.48356501351006,362.4161225056649,122.0531678366754,360.9722391350326,165.2379274698362" stroke="#2C2E34"/>
      <path class="door" fill="rgba(46, 225, 210, 0.3)" stroke-width="4" filter="url(#splotch)" d="M357.9483353183716,392.98979988800187C357.1220907273323,387.7569962298505,356.2233774002431,187.4914724703913,353.9304408579353,187.84168995478254C351.6375043156275,188.19190743917378,347.9503445581011,389.1578661674154,291.69846551032623,391.5913863957635C235.44658646255118,394.02490662411157,126.62998812452759,197.92598835256618,70.4095700407998,194.96033059704965C14.189151957072028,191.99467284153312,10.564914127640066,382.16227560204544,67.64303776645436,384.96155903184876C124.72116140526863,387.7608424616521,242.5016465123292,203.19180656074641,301.0150011383647,205.8072468318717C359.52835576440026,208.422687102997,358.77457990941093,398.22260354615327,357.9483353183716,392.98979988800187" stroke="#2C2E34"/>
      <path class="door" fill="rgba(39, 219, 217, 0.3)" stroke-width="4" filter="url(#splotch)" d="M353.9304408579353,187.84168995478254C351.6375043156275,188.19190743917378,347.9503445581011,389.1578661674154,291.69846551032623,391.5913863957635C235.44658646255118,394.02490662411157,126.62998812452759,197.92598835256618,70.4095700407998,194.96033059704965C14.189151957072028,191.99467284153312,10.564914127640066,382.16227560204544,8.407775133731468,383.4438022175071C6.250636139822869,384.7253288329687,5.560595981437634,197.12077930337963,64.0739506074732,199.73621957450493C122.58730523350876,202.35165984563022,240.30405464396515,395.1870899174699,298.71307268564874,391.4720430736602C357.1220907273323,387.7569962298505,356.2233774002431,187.4914724703913,353.9304408579353,187.84168995478254" stroke="#2C2E34"/>
    </g>
  </g>
  <g width="360" height="582" class="right" transform="translate(720,0) scale(-1,1)">
    <g class="mesh" filter="url(#pencil)">
      <path class="door" fill="rgba(75, 243, 181, 0.3)" stroke-width="4" filter="url(#splotch)" d="M-7.027070740779422,186.634263086878C-7.516494324214809,183.38972719337107,-8.585710195579262,379.5843755153713,53.60285359293166,436.5375227352003C115.79141738144257,493.49066995502926,241.23776082982886,411.202316072687,302.89393711088445,318.34294054309856C364.55011339194,225.48356501351006,362.4161225056649,122.0531678366754,360.9722391350326,165.2379274698362C359.52835576440026,208.422687102997,358.77457990941093,398.22260354615327,297.6078272117907,494.32651496924865C236.44107451417054,590.4304263923441,114.86134497391957,592.8383327953786,54.116664556040924,492.7004259423888C-6.6280158618377145,392.562519089399,-6.537647157344035,189.87879898038491,-7.027070740779422,186.634263086878" stroke="#2C2E34"/>
      <path class="door" fill="rgba(67, 240, 189, 0.3)" stroke-width="4" filter="url(#splotch)" d="M53.60285359293166,436.5375227352003C115.79141738144257,493.49066995502926,241.23776082982886,411.202316072687,302.89393711088445,318.34294054309856C364.55011339194,225.48356501351006,362.4161225056649,122.0531678366754,360.9722391350326,165.2379274698362C359.52835576440026,208.422687102997,358.77457990941093,398.22260354615327,357.9483353183716,392.98979988800187C357.1220907273323,387.7569962298505,356.2233774002431,187.4914724703913,295.47869698236445,87.35356561740151C234.73401656448584,-12.784341235588272,114.14336905581774,-12.79463118210873,53.31343736580146,85.29754800563117C-7.516494324214809,183.38972719337107,-8.585710195579262,379.5843755153713,53.60285359293166,436.5375227352003" stroke="#2C2E34"/>
      <path class="door" fill="rgba(60, 235, 196, 0.3)" stroke-width="4" filter="url(#splotch)" d="M302.89393711088445,318.34294054309856C364.55011339194,225.48356501351006,362.4161225056649,122.0531678366754,360.9722391350326,165.2379274698362C359.52835576440026,208.422687102997,358.77457990941093,398.22260354615327,357.9483353183716,392.98979988800187C357.1220907273323,387.7569962298505,356.2233774002431,187.4914724703913,353.9304408579353,187.84168995478254C351.6375043156275,188.19190743917378,347.9503445581011,389.1578661674154,287.1204128680849,487.25004535515535C226.2904811780686,585.3422245428952,108.31777755556244,580.5606241901334,112.05459746850251,537.0256470725814C115.79141738144257,493.49066995502926,241.23776082982886,411.202316072687,302.89393711088445,318.34294054309856" stroke="#2C2E34"/>
      <path class="door" fill="rgba(52, 230, 204, 0.3)" stroke-width="4" filter="url(#splotch)" d="M360.9722391350326,165.2379274698362C359.52835576440026,208.422687102997,358.77457990941093,398.22260354615327,357.9483353183716,392.98979988800187C357.1220907273323,387.7569962298505,356.2233774002431,187.4914724703913,353.9304408579353,187.84168995478254C351.6375043156275,188.19190743917378,347.9503445581011,389.1578661674154,291.69846551032623,391.5913863957635C235.44658646255118,394.02490662411157,126.62998812452759,197.92598835256618,130.36680803746765,154.39101123501413C134.1036279504077,110.8560341174621,250.39386611431144,219.8849981539034,307.47198975312574,222.6842815837067C364.55011339194,225.48356501351006,362.4161225056649,122.0531678366754,360.9722391350326,165.2379274698362" stroke="#2C2E34"/>
      <path class="door" fill="rgba(46, 225, 210, 0.3)" stroke-width="4" filter="url(#splotch)" d="M357.9483353183716,392.98979988800187C357.1220907273323,387.7569962298505,356.2233774002431,187.4914724703913,353.9304408579353,187.84168995478254C351.6375043156275,188.19190743917378,347.9503445581011,389.1578661674154,291.69846551032623,391.5913863957635C235.44658646255118,394.02490662411157,126.62998812452759,197.92598835256618,70.4095700407998,194.96033059704965C14.189151957072028,191.99467284153312,10.564914127640066,382.16227560204544,67.64303776645436,384.96155903184876C124.72116140526863,387.7608424616521,242.5016465123292,203.19180656074641,301.0150011383647,205.8072468318717C359.52835576440026,208.422687102997,358.77457990941093,398.22260354615327,357.9483353183716,392.98979988800187" stroke="#2C2E34"/>
      <path class="door" fill="rgba(39, 219, 217, 0.3)" stroke-width="4" filter="url(#splotch)" d="M353.9304408579353,187.84168995478254C351.6375043156275,188.19190743917378,347.9503445581011,389.1578661674154,291.69846551032623,391.5913863957635C235.44658646255118,394.02490662411157,126.62998812452759,197.92598835256618,70.4095700407998,194.96033059704965C14.189151957072028,191.99467284153312,10.564914127640066,382.16227560204544,8.407775133731468,383.4438022175071C6.250636139822869,384.7253288329687,5.560595981437634,197.12077930337963,64.0739506074732,199.73621957450493C122.58730523350876,202.35165984563022,240.30405464396515,395.1870899174699,298.71307268564874,391.4720430736602C357.1220907273323,387.7569962298505,356.2233774002431,187.4914724703913,353.9304408579353,187.84168995478254" stroke="#2C2E34"/>
    </g>
  </g>
</svg>
