<?xml version="1.0" encoding="UTF-8"?>
<svg viewBox="0 0 204.6 204.6" xmlns="http://www.w3.org/2000/svg">
<path d="m102.3 201.19 86.006-147.97" fill="none" stroke="#f95907"/>
<path d="m188.31 53.219-170.9-1.0898" fill="none" stroke="#f95a07"/>
<path d="m17.403 52.129 82.692 149.05" fill="none" stroke="#f95a07"/>
<path d="m100.1 201.18 89.278-146.87" fill="none" stroke="#f95a07"/>
<path d="m189.37 54.317-170.82-3.2693" fill="none" stroke="#f95b07"/>
<path d="m18.555 51.048 79.337 150.11" fill="none" stroke="#f95b07"/>
<path d="m97.892 201.16 92.505-145.74" fill="none" stroke="#fa5b06"/>
<path d="m190.4 55.423-170.65-5.4483" fill="none" stroke="#fa5b06"/>
<path d="m19.748 49.974 75.942 151.14" fill="none" stroke="#fa5c06"/>
<path d="m95.69 201.12 95.686-144.58" fill="none" stroke="#fa5c06"/>
<path d="m191.38 56.536-170.39-7.6263" fill="none" stroke="#fa5c06"/>
<path d="m20.983 48.909 72.509 152.15" fill="none" stroke="#fa5d06"/>
<path d="m93.492 201.06 98.82-143.41" fill="none" stroke="#fa5d06"/>
<path d="m192.31 57.656-170.05-9.8031" fill="none" stroke="#fa5d06"/>
<path d="m22.258 47.853 69.04 153.14" fill="none" stroke="#fa5e06"/>
<path d="m91.298 200.99 101.9-142.21" fill="none" stroke="#fa5e06"/>
<path d="m193.2 58.784-169.63-11.978" fill="none" stroke="#fa5e06"/>
<path d="m23.572 46.806 65.537 154.1" fill="none" stroke="#fb5f05"/>
<path d="m89.11 200.9 104.94-140.98" fill="none" stroke="#fb5f05"/>
<path d="m194.05 59.919-169.12-14.152" fill="none" stroke="#fb5f05"/>
<path d="m24.926 45.768 62.002 155.03" fill="none" stroke="#fb6005"/>
<path d="m86.928 200.8 107.92-139.74" fill="none" stroke="#fb6005"/>
<path d="m194.85 61.061-168.53-16.323" fill="none" stroke="#fb6005"/>
<path d="m26.318 44.738 58.435 155.94" fill="none" stroke="#fb6105"/>
<path d="m84.754 200.68 110.85-138.47" fill="none" stroke="#fb6105"/>
<path d="m195.6 62.209-167.85-18.491" fill="none" stroke="#fb6105"/>
<path d="m27.748 43.719 54.84 156.82" fill="none" stroke="#fb6205"/>
<path d="m82.588 200.54 113.72-137.18" fill="none" stroke="#fb6205"/>
<path d="m196.31 63.365-167.09-20.656" fill="none" stroke="#fb6205"/>
<path d="m29.215 42.708 51.217 157.68" fill="none" stroke="#fc6204"/>
<path d="m80.433 200.39 116.54-135.86" fill="none" stroke="#fc6304"/>
<path d="m196.97 64.526-166.25-22.818" fill="none" stroke="#fc6304"/>
<path d="m30.719 41.708 47.569 158.51" fill="none" stroke="#fc6304"/>
<path d="m78.288 200.22 119.3-134.53" fill="none" stroke="#fc6404"/>
<path d="m197.58 65.693-165.33-24.977" fill="none" stroke="#fc6404"/>
<path d="m32.258 40.717 43.897 159.32" fill="none" stroke="#fc6404"/>
<path d="m76.155 200.04 121.99-133.17" fill="none" stroke="#fc6504"/>
<path d="m198.15 66.867-164.32-27.131" fill="none" stroke="#fc6504"/>
<path d="m33.832 39.736 40.204 160.1" fill="none" stroke="#fc6504"/>
<path d="m74.035 199.84 124.63-131.79" fill="none" stroke="#fc6604"/>
<path d="m198.67 68.046-163.23-29.281" fill="none" stroke="#fc6604"/>
<path d="m35.44 38.765 36.49 160.86" fill="none" stroke="#fc6604"/>
<path d="m71.929 199.62 127.21-130.39" fill="none" stroke="#fc6704"/>
<path d="m199.14 69.231-162.06-31.426" fill="none" stroke="#fd6703"/>
<path d="m37.081 37.805 32.758 161.58" fill="none" stroke="#fd6703"/>
<path d="m69.839 199.39 129.72-128.97" fill="none" stroke="#fd6803"/>
<path d="m199.56 70.421-160.81-33.566" fill="none" stroke="#fd6803"/>
<path d="m38.754 36.855 29.01 162.29" fill="none" stroke="#fd6803"/>
<path d="m67.764 199.14 132.17-127.53" fill="none" stroke="#fd6903"/>
<path d="m199.94 71.616-159.48-35.7" fill="none" stroke="#fd6903"/>
<path d="m40.459 35.916 25.248 162.96" fill="none" stroke="#fd6903"/>
<path d="m65.707 198.88 134.56-126.06" fill="none" stroke="#fd6a03"/>
<path d="m200.26 72.816-158.07-37.829" fill="none" stroke="#fd6a03"/>
<path d="m42.195 34.987 21.472 163.61" fill="none" stroke="#fd6a03"/>
<path d="m63.668 198.6 136.87-124.58" fill="none" stroke="#fd6b03"/>
<path d="m200.54 74.021-156.58-39.952" fill="none" stroke="#fd6b03"/>
<path d="m43.961 34.07 17.687 164.24" fill="none" stroke="#fd6b03"/>
<path d="m61.648 198.31 139.12-123.08" fill="none" stroke="#fd6c03"/>
<path d="m200.77 75.231-155.01-42.068" fill="none" stroke="#fd6c03"/>
<path d="m45.756 33.163 13.892 164.83" fill="none" stroke="#fd6c03"/>
<path d="m59.648 198 141.3-121.55" fill="none" stroke="#fd6d03"/>
<path d="m200.95 76.445-153.37-44.177" fill="none" stroke="#fe6d02"/>
<path d="m47.578 32.268 10.091 165.4" fill="none" stroke="#fe6d02"/>
<path d="m57.669 197.67 143.41-120.01" fill="none" stroke="#fe6d02"/>
<path d="m201.08 77.663-151.65-46.279" fill="none" stroke="#fe6e02"/>
<path d="m49.429 31.384 6.2844 165.95" fill="none" stroke="#fe6e02"/>
<path d="m55.713 197.33 145.44-118.45" fill="none" stroke="#fe6e02"/>
<path d="m201.16 78.885-149.85-48.374" fill="none" stroke="#fe6f02"/>
<path d="m51.305 30.512 2.4748 166.46" fill="none" stroke="#fe6f02"/>
<path d="m53.78 196.97 147.41-116.86" fill="none" stroke="#fe6f02"/>
<path d="m201.19 80.111-147.98-50.46" fill="none" stroke="#fe7002"/>
<path d="m53.207 29.651-1.336 166.95" fill="none" stroke="#fe7002"/>
<path d="m51.871 196.6 149.3-115.26" fill="none" stroke="#fe7002"/>
<path d="m201.17 81.341-146.04-52.539" fill="none" stroke="#fe7102"/>
<path d="m55.133 28.802-5.1461 167.41" fill="none" stroke="#fe7102"/>
<path d="m49.987 196.22 151.12-113.64" fill="none" stroke="#fe7102"/>
<path d="m201.11 82.574-144.02-54.609" fill="none" stroke="#fe7202"/>
<path d="m57.082 27.965-8.9537 167.85" fill="none" stroke="#fe7202"/>
<path d="m48.129 195.81 152.86-112" fill="none" stroke="#fe7202"/>
<path d="m200.99 83.81-141.94-56.67" fill="none" stroke="#fe7302"/>
<path d="m59.054 27.14-12.757 168.26" fill="none" stroke="#fe7302"/>
<path d="m46.298 195.4 154.53-110.35" fill="none" stroke="#fe7302"/>
<path d="m200.83 85.049-139.78-58.722" fill="none" stroke="#fe7402"/>
<path d="m61.048 26.328-16.554 168.64" fill="none" stroke="#fe7402"/>
<path d="m44.494 194.96 156.12-108.67" fill="none" stroke="#fe7402"/>
<path d="m200.61 86.292-137.55-60.764" fill="none" stroke="#fe7502"/>
<path d="m63.062 25.527-20.342 168.99" fill="none" stroke="#ff7501"/>
<path d="m42.72 194.52 157.63-106.98" fill="none" stroke="#ff7501"/>
<path d="m200.35 87.536-135.25-62.797" fill="none" stroke="#ff7601"/>
<path d="m65.095 24.739-24.121 169.31" fill="none" stroke="#ff7601"/>
<path d="m40.975 194.05 159.06-105.27" fill="none" stroke="#ff7601"/>
<path d="m200.04 88.783-132.89-64.819" fill="none" stroke="#ff7701"/>
<path d="m67.147 23.964-27.887 169.61" fill="none" stroke="#ff7701"/>
<path d="m39.26 193.58 160.42-103.54" fill="none" stroke="#ff7701"/>
<path d="m199.68 90.032-130.46-66.831" fill="none" stroke="#ff7801"/>
<path d="m69.217 23.201-31.64 169.88" fill="none" stroke="#ff7801"/>
<path d="m37.577 193.08 161.69-101.8" fill="none" stroke="#ff7801"/>
<path d="m199.27 91.284-127.97-68.832" fill="none" stroke="#ff7901"/>
<path d="m71.303 22.452-35.376 170.13" fill="none" stroke="#ff7901"/>
<path d="m35.927 192.58 162.89-100.04" fill="none" stroke="#ff7901"/>
<path d="m198.81 92.537-125.41-70.822" fill="none" stroke="#ff7a01"/>
<path d="m73.404 21.715-39.096 170.34" fill="none" stroke="#ff7a01"/>
<path d="m34.309 192.06 164-98.264" fill="none" stroke="#ff7a01"/>
<path d="m198.31 93.791-122.79-72.8" fill="none" stroke="#ff7b01"/>
<path d="m75.52 20.991-42.795 170.53" fill="none" stroke="#ff7b01"/>
<path d="m32.725 191.52 165.03-96.472" fill="none" stroke="#ff7b01"/>
<path d="m197.76 95.047-120.11-74.767" fill="none" stroke="#ff7c01"/>
<path d="m77.649 20.28-46.474 170.69" fill="none" stroke="#ff7c01"/>
<path d="m31.175 190.97 165.98-94.664" fill="none" stroke="#ff7c01"/>
<path d="m197.16 96.304-117.37-76.721" fill="none" stroke="#ff7d01"/>
<path d="m79.79 19.583-50.129 170.82" fill="none" stroke="#ff7d01"/>
<path d="m29.661 190.4 166.85-92.841" fill="none" stroke="#ff7d01"/>
<path d="m196.51 97.562-114.57-78.663" fill="none" stroke="#ff7e01"/>
<path d="m81.943 18.899-53.76 170.92" fill="none" stroke="#ff7e01"/>
<path d="m28.183 189.82 167.64-91.003" fill="none" stroke="#ff7e01"/>
<path d="m195.82 98.821-111.71-80.592" fill="none" stroke="#ff7f01"/>
<path d="m84.106 18.229-57.364 171" fill="none" stroke="#ff7f01"/>
<path d="m26.742 189.23 168.34-89.15" fill="none" stroke="#ff7f01"/>
<path d="m195.08 100.08-108.8-82.508" fill="none" stroke="#ff8001"/>
<path d="m86.277 17.573-60.939 171.05" fill="none" stroke="#ff8001"/>
<path d="m25.338 188.62 168.95-87.282" fill="none" stroke="#ff8001"/>
<path d="m194.29 101.34-105.83-84.411" fill="none" stroke="#ff8101"/>
<path d="m88.457 16.93-64.484 171.07" fill="none" stroke="#ff8101"/>
<path d="m23.973 188 169.49-85.4" fill="none" stroke="#ff8101"/>
<path d="m193.46 102.6-102.82-86.3" fill="none" stroke="#ff8201"/>
<path d="m90.643 16.301-67.997 171.06" fill="none" stroke="#ff8201"/>
<path d="m22.646 187.37 169.94-83.505" fill="none" stroke="#ff8201"/>
<path d="m192.58 103.86-99.747-88.175" fill="none" stroke="#ff8301"/>
<path d="m92.836 15.686-71.476 171.03" fill="none" stroke="#ff8301"/>
<path d="m21.36 186.72 170.3-81.596" fill="none" stroke="#ff8301"/>
<path d="m191.66 105.12-96.628-90.035" fill="none" stroke="#ff8401"/>
<path d="m95.033 15.085-74.92 170.97" fill="none" stroke="#ff8401"/>
<path d="m20.113 186.05 170.58-79.674" fill="none" stroke="#ff8401"/>
<path d="m190.69 106.38-93.461-91.881" fill="none" stroke="#ff8501"/>
<path d="m97.233 14.498-78.326 170.88" fill="none" stroke="#ff8501"/>
<path d="m18.907 185.38 170.78-77.738" fill="none" stroke="#ff8501"/>
<path d="m189.68 107.64-90.247-93.712" fill="none" stroke="#ff8601"/>
<path d="m99.436 13.925-81.693 170.76" fill="none" stroke="#ff8601"/>
<path d="m17.743 184.69 170.89-75.79" fill="none" stroke="#ff8601"/>
<path d="m188.63 108.9-86.989-95.528" fill="none" stroke="#ff8701"/>
<path d="m101.64 13.367-85.02 170.62" fill="none" stroke="#ff8701"/>
<path d="m16.621 183.98 170.91-73.83" fill="none" stroke="#ff8701"/>
<path d="m187.53 110.15-83.687-97.329" fill="none" stroke="#ff8801"/>
<path d="m103.85 12.823-88.305 170.44" fill="none" stroke="#ff8801"/>
<path d="m15.541 183.27 170.85-71.858" fill="none" stroke="#ff8801"/>
<path d="m186.39 111.41-80.344-99.113" fill="none" stroke="#ff8901"/>
<path d="m106.05 12.294-91.545 170.24" fill="none" stroke="#ff8901"/>
<path d="m14.505 182.54 170.71-69.874" fill="none" stroke="#ff8901"/>
<path d="m185.21 112.66-76.96-100.88" fill="none" stroke="#ff8a01"/>
<path d="m108.25 11.78-94.74 170.01" fill="none" stroke="#ff8a01"/>
<path d="m13.512 181.79 170.48-67.879" fill="none" stroke="#ff8a01"/>
<path d="m183.99 113.91-73.539-102.63" fill="none" stroke="#ff8a01"/>
<path d="m110.45 11.28-97.889 169.76" fill="none" stroke="#ff8b01"/>
<path d="m12.563 181.04 170.16-65.873" fill="none" stroke="#ff8b01"/>
<path d="m182.73 115.16-70.081-104.37" fill="none" stroke="#fe8b02"/>
<path d="m112.65 10.794-100.99 169.47" fill="none" stroke="#fe8c02"/>
<path d="m11.659 180.27 169.77-63.856" fill="none" stroke="#fe8c02"/>
<path d="m181.42 116.41-66.588-106.09" fill="none" stroke="#fe8c02"/>
<path d="m114.84 10.324-104.04 169.16" fill="none" stroke="#fe8d02"/>
<path d="m10.8 179.49 169.28-61.829" fill="none" stroke="#fe8d02"/>
<path d="m180.08 117.66-63.062-107.79" fill="none" stroke="#fe8d02"/>
<path d="m117.02 9.8688-107.03 168.82" fill="none" stroke="#fe8e02"/>
<path d="m9.9864 178.69 168.72-59.791" fill="none" stroke="#fe8e02"/>
<path d="m178.7 118.9-59.504-109.47" fill="none" stroke="#fe8e02"/>
<path d="m119.2 9.4284-109.98 168.46" fill="none" stroke="#fe8f02"/>
<path d="m9.2188 177.89 168.06-57.744" fill="none" stroke="#fe8f02"/>
<path d="m177.28 120.14-55.917-111.14" fill="none" stroke="#fe8f02"/>
<path d="m121.37 9.0031-112.87 168.06" fill="none" stroke="#fe9002"/>
<path d="m8.4974 177.07 167.33-55.688" fill="none" stroke="#fe9002"/>
<path d="m175.83 121.38-52.303-112.79" fill="none" stroke="#fe9002"/>
<path d="m123.52 8.593-115.7 167.64" fill="none" stroke="#fe9102"/>
<path d="m7.8226 176.24 166.51-53.623" fill="none" stroke="#fe9102"/>
<path d="m174.33 122.61-48.662-114.42" fill="none" stroke="#fe9102"/>
<path d="m125.67 8.198-118.48 167.2" fill="none" stroke="#fe9202"/>
<path d="m7.1949 175.39 165.61-51.548" fill="none" stroke="#fe9202"/>
<path d="m172.81 123.85-44.997-116.03" fill="none" stroke="#fe9202"/>
<path d="m127.81 7.8184-121.19 166.72" fill="none" stroke="#fe9302"/>
<path d="m6.6144 174.54 164.63-49.466" fill="none" stroke="#fe9302"/>
<path d="m171.24 125.07-41.31-117.62" fill="none" stroke="#fe9302"/>
<path d="m129.93 7.454-123.85 166.22" fill="none" stroke="#fd9403"/>
<path d="m6.0815 173.67 163.56-47.375" fill="none" stroke="#fd9403"/>
<path d="m169.64 126.3-37.602-119.19" fill="none" stroke="#fd9403"/>
<path d="m132.04 7.1051-126.45 165.69" fill="none" stroke="#fd9503"/>
<path d="m5.5964 172.8 162.42-45.277" fill="none" stroke="#fd9503"/>
<path d="m168.01 127.52-33.875-120.75" fill="none" stroke="#fd9503"/>
<path d="m134.14 6.7716-128.98 165.13" fill="none" stroke="#fd9603"/>
<path d="m5.1593 171.91 161.19-43.172" fill="none" stroke="#fd9603"/>
<path d="m166.35 128.73-30.132-122.28" fill="none" stroke="#fd9603"/>
<path d="m136.22 6.4537-131.45 164.55" fill="none" stroke="#fd9703"/>
<path d="m4.7706 171.01 159.88-41.059" fill="none" stroke="#fd9703"/>
<path d="m164.65 129.95-26.373-123.8" fill="none" stroke="#fd9703"/>
<path d="m138.28 6.1513-133.85 163.94" fill="none" stroke="#fd9803"/>
<path d="m4.4304 170.09 158.5-38.94" fill="none" stroke="#fd9803"/>
<path d="m162.93 131.15-22.602-125.29" fill="none" stroke="#fd9803"/>
<path d="m140.32 5.8645-136.19 163.31" fill="none" stroke="#fd9903"/>
<path d="m4.1388 169.17 157.03-36.814" fill="none" stroke="#fd9903"/>
<path d="m161.17 132.36-18.819-126.76" fill="none" stroke="#fc9904"/>
<path d="m142.35 5.5933-138.45 162.64" fill="none" stroke="#fc9a04"/>
<path d="m3.896 168.24 155.49-34.683" fill="none" stroke="#fc9a04"/>
<path d="m159.38 133.55-15.027-128.22" fill="none" stroke="#fc9a04"/>
<path d="m144.36 5.3379-140.65 161.96" fill="none" stroke="#fc9a04"/>
<path d="m3.7022 167.29 153.87-32.546" fill="none" stroke="#fc9b04"/>
<path d="m157.57 134.75-11.228-129.65" fill="none" stroke="#fc9b04"/>
<path d="m146.34 5.0982-142.78 161.24" fill="none" stroke="#fc9b04"/>
<path d="m3.5573 166.34 152.17-30.403" fill="none" stroke="#fc9c04"/>
<path d="m155.73 135.94-7.4224-131.06" fill="none" stroke="#fc9c04"/>
<path d="m148.3 4.8743-144.84 160.5" fill="none" stroke="#fc9c04"/>
<path d="m3.4616 165.37 150.4-28.256" fill="none" stroke="#fc9d04"/>
<path d="m153.86 137.12-3.6136-132.45" fill="none" stroke="#fc9d04"/>
<path d="m150.24 4.6661-146.83 159.73" fill="none" stroke="#fc9d04"/>
<path d="m3.4149 164.4 148.55-26.104" fill="none" stroke="#fb9e05"/>
<path d="m151.96 138.29 0.19702-133.82" fill="none" stroke="#fb9e05"/>
<path d="m152.16 4.4739-148.74 158.94" fill="none" stroke="#fb9e05"/>
<path d="m3.4175 163.41 146.63-23.948" fill="none" stroke="#fb9f05"/>
<path d="m150.05 139.46 4.0075-135.17" fill="none" stroke="#fb9f05"/>
<path d="m154.05 4.2975-150.58 158.12" fill="none" stroke="#fb9f05"/>
<path d="m3.4692 162.42 144.63-21.788" fill="none" stroke="#fba005"/>
<path d="m148.1 140.63 7.8161-136.49" fill="none" stroke="#fba005"/>
<path d="m155.92 4.137-152.35 157.27" fill="none" stroke="#fba005"/>
<path d="m3.57 161.41 142.57-19.624" fill="none" stroke="#fba105"/>
<path d="m146.14 141.79 11.621-137.79" fill="none" stroke="#fba105"/>
<path d="m157.76 3.9925-154.04 156.4" fill="none" stroke="#fba105"/>
<path d="m3.7199 160.4 140.43-17.457" fill="none" stroke="#faa206"/>
<path d="m144.15 142.94 15.42-139.08" fill="none" stroke="#faa206"/>
<path d="m159.57 3.8639-155.65 155.51" fill="none" stroke="#faa206"/>
<path d="m3.9189 159.37 138.22-15.287" fill="none" stroke="#faa306"/>
<path d="m142.14 144.08 19.211-140.33" fill="none" stroke="#faa306"/>
<path d="m161.35 3.7513-157.19 154.59" fill="none" stroke="#faa306"/>
<path d="m4.1667 158.34 135.95-13.115" fill="none" stroke="#faa306"/>
<path d="m140.11 145.22 22.992-141.57" fill="none" stroke="#faa406"/>
<path d="m163.11 3.6547-158.64 153.64" fill="none" stroke="#faa406"/>
<path d="m4.4633 157.3 133.6-10.941" fill="none" stroke="#faa406"/>
<path d="m138.07 146.35 26.763-142.78" fill="none" stroke="#faa506"/>
<path d="m164.83 3.5742-160.02 152.67" fill="none" stroke="#f9a507"/>
<path d="m4.8086 156.24 131.19-8.765" fill="none" stroke="#f9a507"/>
<path d="m136 147.48 30.52-143.97" fill="none" stroke="#f9a607"/>
<path d="m166.52 3.5096-161.32 151.67" fill="none" stroke="#f9a607"/>
<path d="m5.2023 155.18 128.72-6.5875" fill="none" stroke="#f9a607"/>
<path d="m133.92 148.6 34.261-145.14" fill="none" stroke="#f9a707"/>
<path d="m168.18 3.4611-162.54 150.65" fill="none" stroke="#f9a707"/>
<path d="m5.6443 154.11 126.18-4.409" fill="none" stroke="#f9a707"/>
<path d="m131.83 149.71 37.986-146.28" fill="none" stroke="#f9a807"/>
<path d="m169.81 3.4286-163.68 149.61" fill="none" stroke="#f9a807"/>
<path d="m6.1343 153.04 123.58-2.2298" fill="none" stroke="#f8a808"/>
<path d="m129.71 150.81 41.692-147.4" fill="none" stroke="#f8a908"/>
<path d="m171.41 3.4122-164.73 148.54" fill="none" stroke="#f8a908"/>
<path d="m6.6722 151.95 120.92-0.050168" fill="none" stroke="#f8a908"/>
<path d="m127.59 151.9 45.377-148.49" fill="none" stroke="#f8a908"/>
<path d="m172.97 3.4118-165.71 147.45" fill="none" stroke="#f8aa08"/>
<path d="m7.2576 150.86 118.19 2.1294" fill="none" stroke="#f8aa08"/>
<path d="m125.45 152.99 49.04-149.56" fill="none" stroke="#f8aa08"/>
<path d="m174.49 3.4275-166.6 146.33" fill="none" stroke="#f8ab08"/>
<path d="m7.8902 149.76 115.41 4.3087" fill="none" stroke="#f7ab09"/>
<path d="m123.3 154.07 52.678-150.61" fill="none" stroke="#f7ab09"/>
<path d="m175.98 3.4592-167.41 145.19" fill="none" stroke="#f7ac09"/>
<path d="m8.5698 148.65 112.57 6.4873" fill="none" stroke="#f7ac09"/>
<path d="m121.14 155.13 56.29-151.63" fill="none" stroke="#f7ac09"/>
<path d="m177.43 3.507-168.14 144.02" fill="none" stroke="#f7ad09"/>
<path d="m9.296 147.53 109.68 8.6648" fill="none" stroke="#f7ad09"/>
<path d="m118.97 156.2 59.874-152.62" fill="none" stroke="#f7ad09"/>
<path d="m178.85 3.5708-168.78 142.84" fill="none" stroke="#f7ad09"/>
<path d="m10.068 146.41 106.73 10.841" fill="none" stroke="#f6ae0a"/>
<path d="m116.8 157.25 63.428-153.6" fill="none" stroke="#f6ae0a"/>
<path d="m180.22 3.6507-169.34 141.62" fill="none" stroke="#f6ae0a"/>
<path d="m10.887 145.28 103.72 13.015" fill="none" stroke="#f6af0a"/>
<path d="m114.61 158.29 66.951-154.54" fill="none" stroke="#f6af0a"/>
<path d="m181.56 3.7465-169.81 140.39" fill="none" stroke="#f6af0a"/>
<path d="m11.75 144.14 100.67 15.187" fill="none" stroke="#f6b00a"/>
<path d="m112.42 159.32 70.44-155.47" fill="none" stroke="#f6b00a"/>
<path d="m182.86 3.8584-170.2 139.13" fill="none" stroke="#f5b00b"/>
<path d="m12.659 142.99 97.565 17.357" fill="none" stroke="#f5b10b"/>
<path d="m110.22 160.35 73.894-156.36" fill="none" stroke="#f5b10b"/>
<path d="m184.12 3.9862-170.51 137.85" fill="none" stroke="#f5b10b"/>
<path d="m13.612 141.84 94.412 19.524" fill="none" stroke="#f5b10b"/>
<path d="m108.02 161.36 77.312-157.23" fill="none" stroke="#f5b20b"/>
<path d="m185.34 4.13-170.73 136.55" fill="none" stroke="#f5b20b"/>
<path d="m14.61 140.68 91.212 21.688" fill="none" stroke="#f5b20b"/>
<path d="m105.82 162.37 80.691-158.08" fill="none" stroke="#f4b30c"/>
<path d="m186.51 4.2898-170.86 135.23" fill="none" stroke="#f4b30c"/>
<path d="m15.651 139.52 87.967 23.848" fill="none" stroke="#f4b30c"/>
<path d="m103.62 163.37 84.03-158.9" fill="none" stroke="#f4b40c"/>
<path d="m187.65 4.4654-170.91 133.88" fill="none" stroke="#f4b40c"/>
<path d="m16.735 138.35 84.678 26.005" fill="none" stroke="#f4b40c"/>
<path d="m101.41 164.35 87.328-159.7" fill="none" stroke="#f4b40c"/>
<path d="m188.74 4.657-170.88 132.51" fill="none" stroke="#f4b50c"/>
<path d="m17.861 137.17 81.347 28.157" fill="none" stroke="#f3b50d"/>
<path d="m99.209 165.33 90.582-160.46" fill="none" stroke="#f3b50d"/>
<path d="m189.79 4.8643-170.76 131.13" fill="none" stroke="#f3b60d"/>
<path d="m19.03 135.99 77.976 30.304" fill="none" stroke="#f3b60d"/>
<path d="m97.006 166.29 93.79-161.21" fill="none" stroke="#f3b60d"/>
<path d="m190.8 5.0875-170.56 129.71" fill="none" stroke="#f3b70d"/>
<path d="m20.24 134.8 74.565 32.447" fill="none" stroke="#f3b70d"/>
<path d="m94.805 167.25 96.953-161.92" fill="none" stroke="#f2b70e"/>
<path d="m191.76 5.3265-170.27 128.28" fill="none" stroke="#f2b70e"/>
<path d="m21.491 133.61 71.118 34.585" fill="none" stroke="#f2b80e"/>
<path d="m92.609 168.19 100.07-162.61" fill="none" stroke="#f2b80e"/>
<path d="m192.68 5.5812-169.89 126.83" fill="none" stroke="#f2b80e"/>
<path d="m22.782 132.41 67.635 36.716" fill="none" stroke="#f2b90e"/>
<path d="m90.417 169.13 103.13-163.28" fill="none" stroke="#f2b90e"/>
<path d="m193.55 5.8516-169.44 125.36" fill="none" stroke="#f1b90f"/>
<path d="m24.112 131.21 64.119 38.842" fill="none" stroke="#f1ba0f"/>
<path d="m88.231 170.05 106.14-163.91" fill="none" stroke="#f1ba0f"/>
<path d="m194.38 6.1377-168.89 123.86" fill="none" stroke="#f1ba0f"/>
<path d="m25.481 130 60.571 40.962" fill="none" stroke="#f1ba0f"/>
<path d="m86.052 170.96 109.1-164.52" fill="none" stroke="#f1bb0f"/>
<path d="m195.16 6.4394-168.27 122.35" fill="none" stroke="#f0bb10"/>
<path d="m26.889 128.79 56.992 43.075" fill="none" stroke="#f0bb10"/>
<path d="m83.881 171.87 112.01-165.11" fill="none" stroke="#f0bc10"/>
<path d="m195.89 6.7567-167.56 120.82" fill="none" stroke="#f0bc10"/>
<path d="m28.334 127.57 53.386 45.18" fill="none" stroke="#f0bc10"/>
<path d="m81.72 172.75 114.86-165.67" fill="none" stroke="#f0bc10"/>
<path d="m196.58 7.0894-166.76 119.26" fill="none" stroke="#f0bd10"/>
<path d="m29.816 126.35 49.753 47.279" fill="none" stroke="#efbd11"/>
<path d="m79.568 173.63 117.65-166.2" fill="none" stroke="#efbd11"/>
<path d="m197.22 7.4376-165.89 117.69" fill="none" stroke="#efbe11"/>
<path d="m31.334 125.13 46.095 49.37" fill="none" stroke="#efbe11"/>
<path d="m77.428 174.5 120.39-166.7" fill="none" stroke="#efbe11"/>
<path d="m197.82 7.8013-164.93 116.1" fill="none" stroke="#efbf11"/>
<path d="m32.887 123.9 42.414 51.453" fill="none" stroke="#eebf12"/>
<path d="m75.301 175.36 123.06-167.18" fill="none" stroke="#eebf12"/>
<path d="m198.36 8.1802-163.89 114.49" fill="none" stroke="#eebf12"/>
<path d="m34.474 122.67 38.712 53.527" fill="none" stroke="#eec012"/>
<path d="m73.186 176.2 125.68-167.62" fill="none" stroke="#eec012"/>
<path d="m198.86 8.5745-162.77 112.86" fill="none" stroke="#eec012"/>
<path d="m36.096 121.44 34.991 55.593" fill="none" stroke="#edc113"/>
<path d="m71.087 177.03 128.23-168.05" fill="none" stroke="#edc113"/>
<path d="m199.32 8.9839-161.57 111.22" fill="none" stroke="#edc113"/>
<path d="m37.75 120.2 31.252 57.65" fill="none" stroke="#edc113"/>
<path d="m69.002 177.85 130.72-168.44" fill="none" stroke="#edc213"/>
<path d="m199.72 9.4085-160.28 109.55" fill="none" stroke="#edc213"/>
<path d="m39.436 118.96 27.498 59.697" fill="none" stroke="#ecc214"/>
<path d="m66.934 178.66 133.14-168.81" fill="none" stroke="#ecc214"/>
<path d="m200.07 9.8482-158.92 107.87" fill="none" stroke="#ecc314"/>
<path d="m41.154 117.72 23.73 61.735" fill="none" stroke="#ecc314"/>
<path d="m64.884 179.45 135.49-169.15" fill="none" stroke="#ecc314"/>
<path d="m200.38 10.303-157.48 106.17" fill="none" stroke="#ecc414"/>
<path d="m42.902 116.47 19.951 63.763" fill="none" stroke="#ebc415"/>
<path d="m62.853 180.23 137.78-169.46" fill="none" stroke="#ebc415"/>
<path d="m200.64 10.772-155.96 104.45" fill="none" stroke="#ebc415"/>
<path d="m44.679 115.22 16.161 65.78" fill="none" stroke="#ebc515"/>
<path d="m60.841 181 140-169.74" fill="none" stroke="#ebc515"/>
<path d="m200.85 11.257-154.36 102.71" fill="none" stroke="#eac516"/>
<path d="m46.486 113.97 12.364 67.787" fill="none" stroke="#eac616"/>
<path d="m58.849 181.76 142.16-170" fill="none" stroke="#eac616"/>
<path d="m201 11.756-152.69 100.96" fill="none" stroke="#eac616"/>
<path d="m48.319 112.72 8.5601 69.783" fill="none" stroke="#eac616"/>
<path d="m56.88 182.5 144.24-170.23" fill="none" stroke="#eac716"/>
<path d="m201.11 12.27-150.93 99.195" fill="none" stroke="#e9c717"/>
<path d="m50.18 111.47 4.7522 71.767" fill="none" stroke="#e9c717"/>
<path d="m54.932 183.23 146.24-170.43" fill="none" stroke="#e9c717"/>
<path d="m201.18 12.799-149.11 97.411" fill="none" stroke="#e9c817"/>
<path d="m52.067 110.21 0.94192 73.74" fill="none" stroke="#e9c817"/>
<path d="m53.009 183.95 148.18-170.61" fill="none" stroke="#e8c818"/>
<path d="m201.19 13.342-147.21 95.611" fill="none" stroke="#e8c918"/>
<path d="m53.979 108.95-2.8688 75.7" fill="none" stroke="#e8c918"/>
<path d="m51.11 184.65 150.04-170.75" fill="none" stroke="#e8c918"/>
<path d="m201.15 13.899-145.24 93.796" fill="none" stroke="#e8c918"/>
<path d="m55.914 107.7-6.6782 77.649" fill="none" stroke="#e7ca19"/>
<path d="m49.236 185.34 151.83-170.87" fill="none" stroke="#e7ca19"/>
<path d="m201.07 14.471-143.19 91.966" fill="none" stroke="#e7ca19"/>
<path d="m57.873 106.44-10.484 79.585" fill="none" stroke="#e7ca19"/>
<path d="m47.389 186.02 153.54-170.96" fill="none" stroke="#e7cb19"/>
<path d="m200.93 15.057-141.08 90.121" fill="none" stroke="#e6cb1a"/>
<path d="m59.854 105.18-14.285 81.508" fill="none" stroke="#e6cb1a"/>
<path d="m45.569 186.69 155.18-171.03" fill="none" stroke="#e6cc1a"/>
<path d="m200.75 15.658-138.89 88.261" fill="none" stroke="#e6cc1a"/>
<path d="m61.856 103.92-18.079 83.417" fill="none" stroke="#e6cc1a"/>
<path d="m43.777 187.34 156.74-171.06" fill="none" stroke="#e6cc1a"/>
<path d="m200.51 16.272-136.63 86.386" fill="none" stroke="#e5cd1b"/>
<path d="m63.878 102.66-21.863 85.313" fill="none" stroke="#e5cd1b"/>
<path d="m42.014 187.97 158.22-171.07" fill="none" stroke="#e5cd1b"/>
<path d="m200.23 16.901-134.31 84.498" fill="none" stroke="#e5cd1b"/>
<path d="m65.919 101.4-25.637 87.196" fill="none" stroke="#e5ce1b"/>
<path d="m40.282 188.59 159.62-171.05" fill="none" stroke="#e4ce1c"/>
<path d="m199.9 17.543-131.92 82.596" fill="none" stroke="#e4ce1c"/>
<path d="m67.978 100.14-29.398 89.064" fill="none" stroke="#e4ce1c"/>
<path d="m38.58 189.2 160.94-171" fill="none" stroke="#e4cf1c"/>
<path d="m199.52 18.199-129.47 80.681" fill="none" stroke="#e3cf1d"/>
<path d="m70.054 98.879-33.145 90.918" fill="none" stroke="#e3cf1d"/>
<path d="m36.909 189.8 162.18-170.93" fill="none" stroke="#e3cf1d"/>
<path d="m199.09 18.868-126.95 78.752" fill="none" stroke="#e3d01d"/>
<path d="m72.146 97.62-36.875 92.757" fill="none" stroke="#e3d01d"/>
<path d="m35.272 190.38 163.35-170.83" fill="none" stroke="#e2d01e"/>
<path d="m198.62 19.551-124.36 76.811" fill="none" stroke="#e2d01e"/>
<path d="m74.254 96.362-40.586 94.58" fill="none" stroke="#e2d11e"/>
<path d="m33.667 190.94 164.43-170.69" fill="none" stroke="#e2d11e"/>
<path d="m198.09 20.248-121.72 74.857" fill="none" stroke="#e2d11e"/>
<path d="m76.375 95.105-44.278 96.389" fill="none" stroke="#e1d11f"/>
<path d="m32.097 191.49 165.43-170.54" fill="none" stroke="#e1d21f"/>
<path d="m197.52 20.958-119.01 72.891" fill="none" stroke="#e1d21f"/>
<path d="m78.509 93.849-47.947 98.182" fill="none" stroke="#e1d21f"/>
<path d="m30.562 192.03 166.34-170.35" fill="none" stroke="#e1d31f"/>
<path d="m196.9 21.681-116.25 70.913" fill="none" stroke="#e0d320"/>
<path d="m80.655 92.594-51.593 99.959" fill="none" stroke="#e0d320"/>
<path d="m29.062 192.55 167.18-170.14" fill="none" stroke="#e0d320"/>
<path d="m196.24 22.417-113.43 68.924" fill="none" stroke="#e0d420"/>
<path d="m82.812 91.341-55.213 101.72" fill="none" stroke="#dfd421"/>
<path d="m27.599 193.06 167.93-169.89" fill="none" stroke="#dfd421"/>
<path d="m195.53 23.167-110.55 66.923" fill="none" stroke="#dfd421"/>
<path d="m84.978 90.09-58.806 103.46" fill="none" stroke="#dfd421"/>
<path d="m26.173 193.55 168.59-169.63" fill="none" stroke="#dfd521"/>
<path d="m194.77 23.929-107.61 64.912" fill="none" stroke="#ded522"/>
<path d="m87.153 88.841-62.369 105.19" fill="none" stroke="#ded522"/>
<path d="m24.784 194.03 169.18-169.33" fill="none" stroke="#ded522"/>
<path d="m193.96 24.703-104.63 62.89" fill="none" stroke="#ded622"/>
<path d="m89.336 87.593-65.901 106.9" fill="none" stroke="#ddd623"/>
<path d="m23.434 194.49 169.68-169" fill="none" stroke="#ddd623"/>
<path d="m193.11 25.491-101.59 60.858" fill="none" stroke="#ddd623"/>
<path d="m91.525 86.349-69.401 108.59" fill="none" stroke="#ddd723"/>
<path d="m22.124 194.94 170.09-168.65" fill="none" stroke="#ddd723"/>
<path d="m192.22 26.29-98.498 58.816" fill="none" stroke="#dcd724"/>
<path d="m93.719 85.107-72.866 110.27" fill="none" stroke="#dcd724"/>
<path d="m20.853 195.38 170.42-168.27" fill="none" stroke="#dcd824"/>
<path d="m191.28 27.103-95.36 56.765" fill="none" stroke="#dcd824"/>
<path d="m95.918 83.867-76.295 111.93" fill="none" stroke="#dbd825"/>
<path d="m19.623 195.79 170.67-167.87" fill="none" stroke="#dbd825"/>
<path d="m190.29 27.927-92.174 54.704" fill="none" stroke="#dbd925"/>
<path d="m98.119 82.631-79.685 113.57" fill="none" stroke="#dbd925"/>
<path d="m18.434 196.2 170.83-167.43" fill="none" stroke="#dbd925"/>
<path d="m189.26 28.763-88.942 52.634" fill="none" stroke="#dad926"/>
<path d="m100.32 81.398-83.037 115.19" fill="none" stroke="#dada26"/>
<path d="m17.286 196.58 170.91-166.97" fill="none" stroke="#dada26"/>
<path d="m188.19 29.612-85.666 50.556" fill="none" stroke="#dada26"/>
<path d="m102.53 80.168-86.347 116.79" fill="none" stroke="#d9da27"/>
<path d="m16.181 196.96 170.9-166.49" fill="none" stroke="#d9da27"/>
<path d="m187.08 30.472-82.347 48.47" fill="none" stroke="#d9db27"/>
<path d="m104.73 78.942-89.614 118.37" fill="none" stroke="#d9db27"/>
<path d="m15.119 197.31 170.8-165.97" fill="none" stroke="#d8db28"/>
<path d="m185.92 31.344-78.987 46.376" fill="none" stroke="#d8db28"/>
<path d="m106.94 77.719-92.836 119.94" fill="none" stroke="#d8dc28"/>
<path d="m14.1 197.66 170.63-165.43" fill="none" stroke="#d8dc28"/>
<path d="m184.73 32.227-75.589 44.274" fill="none" stroke="#d7dc29"/>
<path d="m109.14 76.501-96.013 121.48" fill="none" stroke="#d7dc29"/>
<path d="m13.125 197.98 170.36-164.86" fill="none" stroke="#d7dd29"/>
<path d="m183.49 33.122-72.152 42.165" fill="none" stroke="#d7dd29"/>
<path d="m111.34 75.287-99.141 123.01" fill="none" stroke="#d6dd2a"/>
<path d="m12.194 198.29 170.01-164.26" fill="none" stroke="#d6dd2a"/>
<path d="m182.21 34.028-68.68 40.049" fill="none" stroke="#d6dd2a"/>
<path d="m113.53 74.077-102.22 124.51" fill="none" stroke="#d6de2a"/>
<path d="m11.308 198.59 169.58-163.64" fill="none" stroke="#d6de2a"/>
<path d="m180.89 34.945-65.173 37.927" fill="none" stroke="#d5de2b"/>
<path d="m115.72 72.872-105.25 126" fill="none" stroke="#d5de2b"/>
<path d="m10.467 198.87 169.06-162.99" fill="none" stroke="#d5df2b"/>
<path d="m179.53 35.873-61.634 35.798" fill="none" stroke="#d5df2b"/>
<path d="m117.9 71.671-108.23 127.46" fill="none" stroke="#d4df2c"/>
<path d="m9.6721 199.13 168.46-162.32" fill="none" stroke="#d4df2c"/>
<path d="m178.14 36.812-58.065 33.664" fill="none" stroke="#d4df2c"/>
<path d="m120.07 70.476-111.15 128.9" fill="none" stroke="#d4e02c"/>
<path d="m8.923 199.38 167.78-161.62" fill="none" stroke="#d3e02d"/>
<path d="m176.7 37.761-54.467 31.524" fill="none" stroke="#d3e02d"/>
<path d="m122.24 69.285-114.01 130.33" fill="none" stroke="#d3e02d"/>
<path d="m8.2203 199.61 167.01-160.89" fill="none" stroke="#d3e12d"/>
<path d="m175.23 38.721-50.841 29.379" fill="none" stroke="#d2e12e"/>
<path d="m124.39 68.1-116.83 131.73" fill="none" stroke="#d2e12e"/>
<path d="m7.5644 199.83 166.16-160.14" fill="none" stroke="#d2e12e"/>
<path d="m173.72 39.691-47.19 27.23" fill="none" stroke="#d2e12e"/>
<path d="m126.53 66.921-119.58 133.11" fill="none" stroke="#d1e22f"/>
<path d="m6.9557 200.03 165.23-159.36" fill="none" stroke="#d1e22f"/>
<path d="m172.18 40.671-43.516 25.076" fill="none" stroke="#d1e22f"/>
<path d="m128.66 65.747-122.27 134.47" fill="none" stroke="#d1e22f"/>
<path d="m6.3943 200.21 164.21-158.55" fill="none" stroke="#d0e230"/>
<path d="m170.6 41.662-39.82 22.918" fill="none" stroke="#d0e330"/>
<path d="m130.78 64.579-124.9 135.8" fill="none" stroke="#d0e330"/>
<path d="m5.8805 200.38 163.11-157.72" fill="none" stroke="#d0e330"/>
<path d="m168.99 42.662-36.105 20.756" fill="none" stroke="#cfe331"/>
<path d="m132.89 63.418-127.47 137.12" fill="none" stroke="#cfe331"/>
<path d="m5.4148 200.53 161.93-156.86" fill="none" stroke="#cfe431"/>
<path d="m167.35 43.672-32.371 18.591" fill="none" stroke="#cee432"/>
<path d="m134.98 62.263-129.98 138.41" fill="none" stroke="#cee432"/>
<path d="m4.9972 200.67 160.67-155.98" fill="none" stroke="#cee432"/>
<path d="m165.67 44.691-28.622 16.423" fill="none" stroke="#cee432"/>
<path d="m137.05 61.114-132.42 139.68" fill="none" stroke="#cde533"/>
<path d="m4.6279 200.79 159.33-155.07" fill="none" stroke="#cde533"/>
<path d="m163.96 45.72-24.858 14.252" fill="none" stroke="#cde533"/>
<path d="m139.1 59.972-134.8 140.93" fill="none" stroke="#cde533"/>
<path d="m4.3072 200.9 157.92-154.14" fill="none" stroke="#cce534"/>
<path d="m162.22 46.758-21.082 12.078" fill="none" stroke="#cce634"/>
<path d="m141.14 58.836-137.11 142.15" fill="none" stroke="#cce634"/>
<path d="m4.0353 200.99 156.42-153.18" fill="none" stroke="#cce634"/>
<path d="m160.45 47.805-17.295 9.9033" fill="none" stroke="#cbe635"/>
<path d="m143.16 57.708-139.35 143.35" fill="none" stroke="#cbe635"/>
<path d="m3.8121 201.06 154.85-152.2" fill="none" stroke="#cbe735"/>
<path d="m158.66 48.861-13.499 7.7265" fill="none" stroke="#cbe735"/>
<path d="m145.16 56.587-141.52 144.53" fill="none" stroke="#cae736"/>
<path d="m3.638 201.12 153.19-151.19" fill="none" stroke="#cae736"/>
<path d="m156.83 49.925-9.6974 5.5485" fill="none" stroke="#cae736"/>
<path d="m147.13 55.474-143.62 145.68" fill="none" stroke="#c9e837"/>
<path d="m3.5129 201.16 151.47-150.16" fill="none" stroke="#c9e837"/>
<path d="m154.98 50.998-5.8906 3.3696" fill="none" stroke="#c9e837"/>
<path d="m149.09 54.368-145.65 146.81" fill="none" stroke="#c9e837"/>
<path d="m3.4369 201.18 149.66-149.1" fill="none" stroke="#c8e838"/>
<path d="m153.1 52.079-2.0808 1.1902" fill="none" stroke="#c8e938"/>
<path d="m151.02 53.27-147.61 147.92" fill="none" stroke="#c8e938"/>
<path d="m3.4101 201.19 147.79-148.02" fill="none" stroke="#c8e938"/>
<path d="m151.2 53.169 1.73-0.98949" fill="none" stroke="#c7e939"/>
<path d="m152.93 52.179-149.49 149" fill="none" stroke="#c7e939"/>
<path d="m3.4324 201.18 145.83-146.92" fill="none" stroke="#c7e939"/>
<path d="m149.27 54.266 5.5399-3.169" fill="none" stroke="#c6ea3a"/>
<path d="m154.81 51.097-151.3 150.06" fill="none" stroke="#c6ea3a"/>
<path d="m3.5038 201.16 143.81-145.79" fill="none" stroke="#c6ea3a"/>
<path d="m147.31 55.371 9.3471-5.348" fill="none" stroke="#c6ea3a"/>
<path d="m156.66 50.024-153.04 151.1" fill="none" stroke="#c5ea3b"/>
<path d="m3.6244 201.12 141.72-144.64" fill="none" stroke="#c5eb3b"/>
<path d="m145.34 56.484 13.15-7.5261" fill="none" stroke="#c5eb3b"/>
<path d="m158.49 48.958-154.7 152.11" fill="none" stroke="#c5eb3b"/>
<path d="m3.7941 201.06 139.55-143.46" fill="none" stroke="#c4eb3c"/>
<path d="m143.34 57.605 16.946-9.703" fill="none" stroke="#c4eb3c"/>
<path d="m160.29 47.902-156.28 153.09" fill="none" stroke="#c4eb3c"/>
<path d="m4.0127 200.99 137.32-142.26" fill="none" stroke="#c3ec3d"/>
<path d="m141.33 58.732 20.733-11.878" fill="none" stroke="#c3ec3d"/>
<path d="m162.06 46.854-157.78 154.05" fill="none" stroke="#c3ec3d"/>
<path d="m4.2802 200.91 135.01-141.04" fill="none" stroke="#c3ec3d"/>
<path d="m139.29 59.867 24.511-14.052" fill="none" stroke="#c2ec3e"/>
<path d="m163.8 45.815-159.21 154.99" fill="none" stroke="#c2ed3e"/>
<path d="m4.5964 200.8 132.64-139.79" fill="none" stroke="#c2ed3e"/>
<path d="m137.24 61.008 28.276-16.223" fill="none" stroke="#c1ed3f"/>
<path d="m165.52 44.786-160.55 155.9" fill="none" stroke="#c1ed3f"/>
<path d="m4.9611 200.68 130.21-138.53" fill="none" stroke="#c1ed3f"/>
<path d="m135.17 62.156 32.027-18.391" fill="none" stroke="#c1ed3f"/>
<path d="m167.19 43.765-161.82 156.78" fill="none" stroke="#c0ee40"/>
<path d="m5.3743 200.55 127.71-137.24" fill="none" stroke="#c0ee40"/>
<path d="m133.08 63.311 35.762-20.557" fill="none" stroke="#c0ee40"/>
<path d="m168.84 42.754-163.01 157.64" fill="none" stroke="#bfee41"/>
<path d="m5.8357 200.4 125.14-135.92" fill="none" stroke="#bfee41"/>
<path d="m130.98 64.472 39.479-22.719" fill="none" stroke="#bfee41"/>
<path d="m170.46 41.753-164.11 158.48" fill="none" stroke="#bfef41"/>
<path d="m6.345 200.23 122.52-134.59" fill="none" stroke="#beef42"/>
<path d="m128.86 65.639 43.177-24.877" fill="none" stroke="#beef42"/>
<path d="m172.04 40.762-165.14 159.28" fill="none" stroke="#beef42"/>
<path d="m6.902 200.05 119.83-133.23" fill="none" stroke="#bdef43"/>
<path d="m126.73 66.813 46.853-27.032" fill="none" stroke="#bdef43"/>
<path d="m173.58 39.781-166.08 160.07" fill="none" stroke="#bdef43"/>
<path d="m7.5064 199.85 117.08-131.85" fill="none" stroke="#bdf043"/>
<path d="m124.59 67.991 50.506-29.182" fill="none" stroke="#bcf044"/>
<path d="m175.09 38.81-166.94 160.82" fill="none" stroke="#bcf044"/>
<path d="m8.158 199.63 114.28-130.46" fill="none" stroke="#bcf044"/>
<path d="m122.43 69.176 54.134-31.327" fill="none" stroke="#bbf045"/>
<path d="m176.57 37.849-167.71 161.55" fill="none" stroke="#bbf045"/>
<path d="m8.8564 199.4 111.41-129.03" fill="none" stroke="#bbf145"/>
<path d="m120.27 70.366 57.735-33.467" fill="none" stroke="#baf146"/>
<path d="m178.01 36.899-168.4 162.26" fill="none" stroke="#baf146"/>
<path d="m9.6012 199.15 108.5-127.59" fill="none" stroke="#baf146"/>
<path d="m118.1 71.561 61.307-35.602" fill="none" stroke="#baf146"/>
<path d="m179.4 35.959-169.01 162.93" fill="none" stroke="#b9f147"/>
<path d="m10.392 198.89 105.53-126.13" fill="none" stroke="#b9f147"/>
<path d="m115.92 72.761 64.849-37.731" fill="none" stroke="#b9f247"/>
<path d="m180.77 35.03-169.54 163.58" fill="none" stroke="#b8f248"/>
<path d="m11.229 198.61 102.5-124.65" fill="none" stroke="#b8f248"/>
<path d="m113.73 73.966 68.358-39.854" fill="none" stroke="#b8f248"/>
<path d="m182.09 34.112-169.98 164.21" fill="none" stroke="#b8f248"/>
<path d="m12.111 198.32 99.427-123.15" fill="none" stroke="#b7f249"/>
<path d="m111.54 75.175 71.834-41.97" fill="none" stroke="#b7f249"/>
<path d="m183.37 33.205-170.33 164.81" fill="none" stroke="#b7f349"/>
<path d="m13.037 198.01 96.303-121.62" fill="none" stroke="#b6f34a"/>
<path d="m109.34 76.389 75.274-44.08" fill="none" stroke="#b6f34a"/>
<path d="m184.61 32.309-170.61 165.38" fill="none" stroke="#b6f34a"/>
<path d="m14.008 197.69 93.131-120.08" fill="none" stroke="#b5f34b"/>
<path d="m107.14 77.607 78.676-46.182" fill="none" stroke="#b5f34b"/>
<path d="m185.82 31.425-170.79 165.92" fill="none" stroke="#b5f34b"/>
<path d="m15.023 197.35 89.912-118.52" fill="none" stroke="#b5f44b"/>
<path d="m104.94 78.829 82.039-48.277" fill="none" stroke="#b4f44c"/>
<path d="m186.98 30.552-170.89 166.44" fill="none" stroke="#b4f44c"/>
<path d="m16.082 196.99 86.649-116.94" fill="none" stroke="#b4f44c"/>
<path d="m102.73 80.055 85.362-50.364" fill="none" stroke="#b3f44d"/>
<path d="m188.09 29.69-170.91 166.93" fill="none" stroke="#b3f44d"/>
<path d="m17.183 196.62 83.343-115.34" fill="none" stroke="#b3f44d"/>
<path d="m100.53 81.284 88.642-52.443" fill="none" stroke="#b2f54e"/>
<path d="m189.17 28.841-170.84 167.39" fill="none" stroke="#b2f54e"/>
<path d="m18.327 196.23 79.996-113.72" fill="none" stroke="#b2f54e"/>
<path d="m98.322 82.517 91.878-54.514" fill="none" stroke="#b2f54e"/>
<path d="m190.2 28.003-170.69 167.83" fill="none" stroke="#b1f54f"/>
<path d="m19.512 195.83 76.608-112.08" fill="none" stroke="#b1f54f"/>
<path d="m96.12 83.753 95.068-56.575" fill="none" stroke="#b1f54f"/>
<path d="m191.19 27.178-170.45 168.24" fill="none" stroke="#b0f550"/>
<path d="m20.738 195.42 73.183-110.42" fill="none" stroke="#b0f650"/>
<path d="m93.921 84.992 98.211-58.628" fill="none" stroke="#b0f650"/>
<path d="m192.13 26.365-170.13 168.62" fill="none" stroke="#aff651"/>
<path d="m22.005 194.98 69.721-108.75" fill="none" stroke="#aff651"/>
<path d="m91.726 86.234 101.31-60.671" fill="none" stroke="#aff651"/>
<path d="m193.03 25.564-169.72 168.97" fill="none" stroke="#aef652"/>
<path d="m23.312 194.54 66.225-107.06" fill="none" stroke="#aef652"/>
<path d="m89.537 87.479 104.35-62.704" fill="none" stroke="#aef652"/>
<path d="m193.89 24.775-169.23 169.3" fill="none" stroke="#aef752"/>
<path d="m24.658 194.07 62.695-105.35" fill="none" stroke="#adf753"/>
<path d="m87.354 88.726 107.34-64.726" fill="none" stroke="#adf753"/>
<path d="m194.7 23.999-168.65 169.6" fill="none" stroke="#adf753"/>
<path d="m26.043 193.6 59.135-103.62" fill="none" stroke="#acf754"/>
<path d="m85.178 89.975 110.28-66.739" fill="none" stroke="#acf754"/>
<path d="m195.46 23.236-167.99 169.87" fill="none" stroke="#acf754"/>
<path d="m27.466 193.11 55.545-101.88" fill="none" stroke="#abf755"/>
<path d="m83.011 91.226 113.16-68.74" fill="none" stroke="#abf755"/>
<path d="m196.17 22.486-167.25 170.11" fill="none" stroke="#abf855"/>
<path d="m28.926 192.6 51.927-100.12" fill="none" stroke="#aaf856"/>
<path d="m80.853 92.479 115.99-70.731" fill="none" stroke="#aaf856"/>
<path d="m196.84 21.748-166.42 170.33" fill="none" stroke="#aaf856"/>
<path d="m30.422 192.08 48.284-98.346" fill="none" stroke="#aaf856"/>
<path d="m78.706 93.733 118.76-72.709" fill="none" stroke="#a9f857"/>
<path d="m197.47 21.024-165.51 170.52" fill="none" stroke="#a9f857"/>
<path d="m31.954 191.54 44.617-96.555" fill="none" stroke="#a9f857"/>
<path d="m76.571 94.989 121.47-74.676" fill="none" stroke="#a8f858"/>
<path d="m198.04 20.313-164.52 170.68" fill="none" stroke="#a8f958"/>
<path d="m33.521 190.99 40.927-94.748" fill="none" stroke="#a8f958"/>
<path d="m74.448 96.246 124.12-76.631" fill="none" stroke="#a7f959"/>
<path d="m198.57 19.615-163.45 170.81" fill="none" stroke="#a7f959"/>
<path d="m35.123 190.43 37.217-92.925" fill="none" stroke="#a7f959"/>
<path d="m72.34 97.504 126.71-78.574" fill="none" stroke="#a6f95a"/>
<path d="m199.05 18.931-162.29 170.92" fill="none" stroke="#a6f95a"/>
<path d="m36.757 189.85 33.489-91.088" fill="none" stroke="#a6f95a"/>
<path d="m70.246 98.763 129.24-80.504" fill="none" stroke="#a5f95b"/>
<path d="m199.48 18.26-161.06 171" fill="none" stroke="#a5f95b"/>
<path d="m38.425 189.26 29.744-89.235" fill="none" stroke="#a5fa5b"/>
<path d="m68.168 100.02 131.7-82.42" fill="none" stroke="#a4fa5c"/>
<path d="m199.87 17.603-159.74 171.05" fill="none" stroke="#a4fa5c"/>
<path d="m40.124 188.65 25.984-87.368" fill="none" stroke="#a4fa5c"/>
<path d="m66.108 101.28 134.09-84.323" fill="none" stroke="#a4fa5c"/>
<path d="m200.2 16.959-158.35 171.07" fill="none" stroke="#a3fa5d"/>
<path d="m41.853 188.03 22.211-85.487" fill="none" stroke="#a3fa5d"/>
<path d="m64.065 102.54 136.42-86.213" fill="none" stroke="#a3fa5d"/>
<path d="m200.49 16.329-156.88 171.07" fill="none" stroke="#a2fa5e"/>
<path d="m43.613 187.39 18.427-83.592" fill="none" stroke="#a2fa5e"/>
<path d="m62.041 103.8 138.69-88.089" fill="none" stroke="#a2fa5e"/>
<path d="m200.73 15.714-155.32 171.03" fill="none" stroke="#a1fb5f"/>
<path d="m45.403 186.75 14.635-81.684" fill="none" stroke="#a1fb5f"/>
<path d="m60.037 105.06 140.88-89.95" fill="none" stroke="#a1fb5f"/>
<path d="m200.92 15.112-153.7 170.97" fill="none" stroke="#a0fb60"/>
<path d="m47.22 186.08 10.834-79.762" fill="none" stroke="#a0fb60"/>
<path d="m58.054 106.32 143-91.797" fill="none" stroke="#a0fb60"/>
<path d="m201.05 14.525-151.99 170.88" fill="none" stroke="#9ffb61"/>
<path d="m49.065 185.41 7.0287-77.828" fill="none" stroke="#9ffb61"/>
<path d="m56.094 107.58 145.05-93.628" fill="none" stroke="#9ffb61"/>
<path d="m201.15 13.951-150.21 170.77" fill="none" stroke="#9efb62"/>
<path d="m50.936 184.72 3.2196-75.88" fill="none" stroke="#9efb62"/>
<path d="m54.156 108.84 147.03-95.445" fill="none" stroke="#9efb62"/>
<path d="m201.19 13.393-148.35 170.62" fill="none" stroke="#9dfc63"/>
<path d="m52.833 184.01-0.59107-73.921" fill="none" stroke="#9dfc63"/>
<path d="m52.242 110.09 148.94-97.246" fill="none" stroke="#9dfc63"/>
<path d="m201.18 12.848-146.43 170.45" fill="none" stroke="#9dfc63"/>
<path d="m54.754 183.3-4.4015-71.949" fill="none" stroke="#9cfc64"/>
<path d="m50.353 111.35 150.77-99.031" fill="none" stroke="#9cfc64"/>
<path d="m201.12 12.318-144.42 170.25" fill="none" stroke="#9cfc64"/>
<path d="m56.699 182.57-8.2097-69.966" fill="none" stroke="#9bfc65"/>
<path d="m48.49 112.6 152.53-100.8" fill="none" stroke="#9bfc65"/>
<path d="m201.02 11.803-142.35 170.02" fill="none" stroke="#9bfc65"/>
<path d="m58.667 181.83-12.014-67.971" fill="none" stroke="#9afc66"/>
<path d="m46.653 113.86 154.21-102.55" fill="none" stroke="#9afc66"/>
<path d="m200.86 11.302-140.21 169.77" fill="none" stroke="#9afc66"/>
<path d="m60.656 181.07-15.812-65.965" fill="none" stroke="#99fc67"/>
<path d="m44.845 115.11 155.81-104.29" fill="none" stroke="#99fd67"/>
<path d="m200.66 10.816-137.99 169.49" fill="none" stroke="#99fd67"/>
<path d="m62.667 180.3-19.602-63.949" fill="none" stroke="#98fd68"/>
<path d="m43.064 116.35 157.34-106.01" fill="none" stroke="#98fd68"/>
<path d="m200.4 10.345-135.71 169.18" fill="none" stroke="#98fd68"/>
<path d="m64.696 179.52-23.383-61.922" fill="none" stroke="#97fd69"/>
<path d="m41.314 117.6 158.79-107.71" fill="none" stroke="#97fd69"/>
<path d="m200.1 9.8894-133.36 168.84" fill="none" stroke="#97fd69"/>
<path d="m66.745 178.73-27.152-59.885" fill="none" stroke="#96fd6a"/>
<path d="m39.593 118.84 160.16-109.4" fill="none" stroke="#96fd6a"/>
<path d="m199.75 9.4484-130.94 168.48" fill="none" stroke="#96fd6a"/>
<path d="m68.811 177.92-30.907-57.839" fill="none" stroke="#95fd6b"/>
<path d="m37.904 120.08 161.45-111.06" fill="none" stroke="#95fd6b"/>
<path d="m199.35 9.0224-128.46 168.08" fill="none" stroke="#95fd6b"/>
<path d="m70.894 177.11-34.647-55.783" fill="none" stroke="#94fd6c"/>
<path d="m36.247 121.32 162.66-112.71" fill="none" stroke="#94fd6c"/>
<path d="m198.91 8.6115-125.91 167.66" fill="none" stroke="#94fd6c"/>
<path d="m72.992 176.28-38.37-53.718" fill="none" stroke="#93fe6d"/>
<path d="m34.622 122.56 163.79-114.34" fill="none" stroke="#93fe6d"/>
<path d="m198.41 8.2159-123.31 167.22" fill="none" stroke="#93fe6d"/>
<path d="m75.105 175.43-42.074-51.644" fill="none" stroke="#92fe6e"/>
<path d="m33.032 123.79 164.84-115.95" fill="none" stroke="#92fe6e"/>
<path d="m197.87 7.8355-120.64 166.74" fill="none" stroke="#92fe6e"/>
<path d="m77.232 174.58-45.757-49.562" fill="none" stroke="#91fe6f"/>
<path d="m31.475 125.02 165.8-117.55" fill="none" stroke="#91fe6f"/>
<path d="m197.28 7.4705-117.91 166.24" fill="none" stroke="#91fe6f"/>
<path d="m79.371 173.71-49.417-47.472" fill="none" stroke="#90fe70"/>
<path d="m29.954 126.24 166.69-119.12" fill="none" stroke="#90fe70"/>
<path d="m196.64 7.1208-115.12 165.72" fill="none" stroke="#90fe70"/>
<path d="m81.521 172.84-53.052-45.374" fill="none" stroke="#8ffe71"/>
<path d="m28.469 127.46 167.49-120.68" fill="none" stroke="#8ffe71"/>
<path d="m195.96 6.7867-112.28 165.16" fill="none" stroke="#8ffe71"/>
<path d="m83.682 171.95-56.662-43.269" fill="none" stroke="#8ffe71"/>
<path d="m27.021 128.68 168.21-122.21" fill="none" stroke="#8efe72"/>
<path d="m195.23 6.468-109.37 164.58" fill="none" stroke="#8efe72"/>
<path d="m85.852 171.05-60.243-41.156" fill="none" stroke="#8efe72"/>
<path d="m25.609 129.89 168.84-123.73" fill="none" stroke="#8dfe73"/>
<path d="m194.45 6.1648-106.42 163.97" fill="none" stroke="#8dfe73"/>
<path d="m88.03 170.14-63.794-39.038" fill="none" stroke="#8dfe73"/>
<path d="m24.237 131.1 169.39-125.22" fill="none" stroke="#8cfe74"/>
<path d="m193.63 5.8773-103.41 163.34" fill="none" stroke="#8cfe74"/>
<path d="m90.215 169.21-67.313-36.912" fill="none" stroke="#8cfe74"/>
<path d="m22.903 132.3 169.86-126.7" fill="none" stroke="#8bff75"/>
<path d="m192.76 5.6055-100.35 162.68" fill="none" stroke="#8bff75"/>
<path d="m92.407 168.28-70.799-34.781" fill="none" stroke="#8bff75"/>
<path d="m21.608 133.5 170.24-128.15" fill="none" stroke="#8aff76"/>
<path d="m191.84 5.3493-97.241 161.99" fill="none" stroke="#8aff76"/>
<path d="m94.603 167.34-74.249-32.644" fill="none" stroke="#8aff76"/>
<path d="m20.353 134.69 170.53-129.58" fill="none" stroke="#89ff77"/>
<path d="m190.89 5.1089-94.084 161.27" fill="none" stroke="#89ff77"/>
<path d="m96.803 166.38-77.663-30.502" fill="none" stroke="#89ff77"/>
<path d="m19.14 135.88 170.74-131" fill="none" stroke="#88ff78"/>
<path d="m189.88 4.8842-90.879 160.53" fill="none" stroke="#88ff78"/>
<path d="m99.006 165.42-81.038-28.355" fill="none" stroke="#88ff78"/>
<path d="m17.967 137.06 170.87-132.39" fill="none" stroke="#87ff79"/>
<path d="m188.84 4.6754-87.629 159.77" fill="none" stroke="#87ff79"/>
<path d="m101.21 164.44-84.373-26.203" fill="none" stroke="#87ff79"/>
<path d="m16.837 138.24 170.91-133.76" fill="none" stroke="#86ff7a"/>
<path d="m187.75 4.4824-84.336 158.98" fill="none" stroke="#86ff7a"/>
<path d="m103.41 163.46-87.666-24.047" fill="none" stroke="#86ff7a"/>
<path d="m15.749 139.41 170.87-135.11" fill="none" stroke="#85ff7b"/>
<path d="m186.62 4.3053-81 158.16" fill="none" stroke="#85ff7b"/>
<path d="m105.62 162.46-90.915-21.887" fill="none" stroke="#85ff7b"/>
<path d="m14.704 140.58 170.74-136.43" fill="none" stroke="#84ff7c"/>
<path d="m185.45 4.1441-77.625 157.31" fill="none" stroke="#84ff7c"/>
<path d="m107.82 161.46-94.12-19.724" fill="none" stroke="#84ff7c"/>
<path d="m13.702 141.73 170.53-137.74" fill="none" stroke="#83ff7d"/>
<path d="m184.23 3.9988-74.211 156.44" fill="none" stroke="#83ff7d"/>
<path d="m110.02 160.44-97.277-17.557" fill="none" stroke="#83ff7d"/>
<path d="m12.745 142.89 170.23-139.02" fill="none" stroke="#82ff7e"/>
<path d="m182.98 3.8695-70.759 155.55" fill="none" stroke="#82ff7e"/>
<path d="m112.22 159.42-100.39-15.387" fill="none" stroke="#82ff7e"/>
<path d="m11.832 144.03 169.85-140.28" fill="none" stroke="#81ff7f"/>
<path d="m181.68 3.7562-67.273 154.63" fill="none" stroke="#81ff7f"/>
<path d="m114.41 158.39-103.45-13.215" fill="none" stroke="#81ff7f"/>
<path d="m10.964 145.17 169.38-141.51" fill="none" stroke="#80ff80"/>
<path d="m180.35 3.6588-63.754 153.69" fill="none" stroke="#80ff80"/>
<path d="m116.59 157.34-106.45-11.041" fill="none" stroke="#80ff80"/>
<path d="m10.142 146.3 168.83-142.73" fill="none" stroke="#7fff81"/>
<path d="m178.97 3.5775-60.202 152.72" fill="none" stroke="#7fff81"/>
<path d="m118.77 156.29-109.41-8.8652" fill="none" stroke="#7fff81"/>
<path d="m9.3652 147.43 168.2-143.92" fill="none" stroke="#7eff82"/>
<path d="m177.56 3.5122-56.621 151.72" fill="none" stroke="#7eff82"/>
<path d="m120.94 155.23-112.31-6.6878" fill="none" stroke="#7eff82"/>
<path d="m8.6347 148.54 167.48-145.08" fill="none" stroke="#7dff83"/>
<path d="m176.11 3.463-53.011 150.7" fill="none" stroke="#7dff83"/>
<path d="m123.1 154.16-115.15-4.5093" fill="none" stroke="#7dff83"/>
<path d="m7.9509 149.65 166.68-146.23" fill="none" stroke="#7cff84"/>
<path d="m174.63 3.4298-49.376 149.66" fill="none" stroke="#7cff84"/>
<path d="m125.25 153.09-117.94-2.3301" fill="none" stroke="#7cff84"/>
<path d="m7.3139 150.76 165.79-147.34" fill="none" stroke="#7bff85"/>
<path d="m173.11 3.4126-45.715 148.59" fill="none" stroke="#7bff85"/>
<path d="m127.39 152-120.67-0.1505" fill="none" stroke="#7bff85"/>
<path d="m6.7241 151.85 164.83-148.44" fill="none" stroke="#7aff86"/>
<path d="m171.55 3.4115-42.032 147.5" fill="none" stroke="#7aff86"/>
<path d="m129.52 150.91-123.34 2.0291" fill="none" stroke="#7aff86"/>
<path d="m6.1819 152.94 163.78-149.51" fill="none" stroke="#79ff87"/>
<path d="m169.96 3.4264-38.328 146.38" fill="none" stroke="#79ff87"/>
<path d="m131.63 149.81-125.94 4.2084" fill="none" stroke="#79ff87"/>
<path d="m5.6874 154.02 162.65-150.56" fill="none" stroke="#78ff88"/>
<path d="m168.33 3.4574-34.605 145.24" fill="none" stroke="#78ff88"/>
<path d="m133.73 148.7-128.49 6.387" fill="none" stroke="#78ff88"/>
<path d="m5.241 155.09 161.44-151.58" fill="none" stroke="#77ff89"/>
<path d="m166.68 3.5045-30.865 144.08" fill="none" stroke="#77ff89"/>
<path d="m135.81 147.58-130.97 8.5646" fill="none" stroke="#77ff89"/>
<path d="m4.8428 156.15 160.14-152.58" fill="none" stroke="#76ff8a"/>
<path d="m164.99 3.5676-27.109 142.89" fill="none" stroke="#76ff8a"/>
<path d="m137.88 146.46-133.39 10.741" fill="none" stroke="#76ff8a"/>
<path d="m4.4931 157.2 158.77-153.55" fill="none" stroke="#75ff8b"/>
<path d="m163.27 3.6467-23.34 141.68" fill="none" stroke="#75ff8b"/>
<path d="m139.93 145.33-135.73 12.915" fill="none" stroke="#75ff8b"/>
<path d="m4.192 158.24 157.32-154.5" fill="none" stroke="#74fe8c"/>
<path d="m161.52 3.7418-19.559 140.45" fill="none" stroke="#74fe8c"/>
<path d="m141.96 144.19-138.02 15.088" fill="none" stroke="#74fe8c"/>
<path d="m3.9396 159.28 155.8-155.42" fill="none" stroke="#73fe8d"/>
<path d="m159.74 3.8529-15.769 139.19" fill="none" stroke="#73fe8d"/>
<path d="m143.97 143.04-140.23 17.257" fill="none" stroke="#73fe8d"/>
<path d="m3.7362 160.3 154.19-156.32" fill="none" stroke="#72fe8e"/>
<path d="m157.93 3.98-11.971 137.91" fill="none" stroke="#72fe8e"/>
<path d="m145.96 141.89-142.37 19.425" fill="none" stroke="#72fe8e"/>
<path d="m3.5818 161.32 152.51-157.19" fill="none" stroke="#71fe8f"/>
<path d="m156.09 4.1231-8.1665 136.61" fill="none" stroke="#71fe8f"/>
<path d="m147.92 140.74-144.45 21.588" fill="none" stroke="#71fe8f"/>
<path d="m3.4764 162.32 150.75-158.04" fill="none" stroke="#71fe8f"/>
<path d="m154.23 4.2821-4.3583 135.29" fill="none" stroke="#70fe90"/>
<path d="m149.87 139.57-146.45 23.749" fill="none" stroke="#70fe90"/>
<path d="m3.4202 163.32 148.92-158.86" fill="none" stroke="#70fe90"/>
<path d="m152.34 4.457-0.54788 133.94" fill="none" stroke="#6ffe91"/>
<path d="m151.79 138.4-148.38 25.905" fill="none" stroke="#6ffe91"/>
<path d="m3.4131 164.31 147.01-159.66" fill="none" stroke="#6ffe91"/>
<path d="m150.42 4.6478 3.2628 132.58" fill="none" stroke="#6efe92"/>
<path d="m153.69 137.23-150.23 28.058" fill="none" stroke="#6efe92"/>
<path d="m3.4552 165.28 145.03-160.43" fill="none" stroke="#6efe92"/>
<path d="m148.48 4.8544 7.0719 131.19" fill="none" stroke="#6dfe93"/>
<path d="m155.56 136.04-152.01 30.206" fill="none" stroke="#6dfe93"/>
<path d="m3.5464 166.25 142.98-161.17" fill="none" stroke="#6dfe93"/>
<path d="m146.52 5.0769 10.877 129.78" fill="none" stroke="#6cfd94"/>
<path d="m157.4 134.86-153.71 32.349" fill="none" stroke="#6cfd94"/>
<path d="m3.6868 167.21 140.85-161.89" fill="none" stroke="#6cfd94"/>
<path d="m144.54 5.3152 14.678 128.35" fill="none" stroke="#6bfd95"/>
<path d="m159.22 133.66-155.34 34.486" fill="none" stroke="#6bfd95"/>
<path d="m3.8761 168.15 138.66-162.58" fill="none" stroke="#6bfd95"/>
<path d="m142.54 5.5692 18.47 126.9" fill="none" stroke="#6afd96"/>
<path d="m161.01 132.47-156.89 36.618" fill="none" stroke="#6afd96"/>
<path d="m4.1144 169.09 136.4-163.25" fill="none" stroke="#6afd96"/>
<path d="m140.51 5.8389 22.254 125.43" fill="none" stroke="#69fd97"/>
<path d="m162.77 131.27-158.36 38.744" fill="none" stroke="#69fd97"/>
<path d="m4.4015 170.01 134.07-163.89" fill="none" stroke="#69fd97"/>
<path d="m138.47 6.1242 26.027 123.93" fill="none" stroke="#68fd98"/>
<path d="m164.5 130.06-159.76 40.864" fill="none" stroke="#68fd98"/>
<path d="m4.7373 170.92 131.67-164.5" fill="none" stroke="#68fd98"/>
<path d="m136.41 6.4252 29.786 122.42" fill="none" stroke="#67fd99"/>
<path d="m166.19 128.85-161.07 42.977" fill="none" stroke="#67fd99"/>
<path d="m5.1215 171.82 129.21-165.08" fill="none" stroke="#67fc99"/>
<path d="m134.33 6.7417 33.531 120.89" fill="none" stroke="#66fc9a"/>
<path d="m167.86 127.63-162.31 45.084" fill="none" stroke="#66fc9a"/>
<path d="m5.5541 172.71 126.68-165.64" fill="none" stroke="#66fc9a"/>
<path d="m132.24 7.0738 37.259 119.34" fill="none" stroke="#65fc9b"/>
<path d="m169.5 126.41-163.46 47.183" fill="none" stroke="#65fc9b"/>
<path d="m6.0348 173.59 124.09-166.17" fill="none" stroke="#65fc9b"/>
<path d="m130.13 7.4213 40.969 117.77" fill="none" stroke="#64fc9c"/>
<path d="m171.1 125.19-164.53 49.274" fill="none" stroke="#64fc9c"/>
<path d="m6.5633 174.46 121.44-166.68" fill="none" stroke="#64fc9c"/>
<path d="m128 7.7842 44.658 116.17" fill="none" stroke="#64fc9c"/>
<path d="m172.66 123.96-165.52 51.357" fill="none" stroke="#63fc9d"/>
<path d="m7.1394 175.32 118.73-167.15" fill="none" stroke="#63fc9d"/>
<path d="m125.87 8.1624 48.325 114.57" fill="none" stroke="#63fc9d"/>
<path d="m174.2 122.73-166.43 53.432" fill="none" stroke="#62fb9e"/>
<path d="m7.7629 176.16 115.96-167.6" fill="none" stroke="#62fb9e"/>
<path d="m123.72 8.556 51.969 112.94" fill="none" stroke="#62fb9e"/>
<path d="m175.69 121.49-167.26 55.498" fill="none" stroke="#61fb9f"/>
<path d="m8.4333 176.99 113.13-168.03" fill="none" stroke="#61fb9f"/>
<path d="m121.56 8.9647 55.586 111.29" fill="none" stroke="#61fb9f"/>
<path d="m177.15 120.26-168 57.555" fill="none" stroke="#60fba0"/>
<path d="m9.1504 177.81 110.25-168.42" fill="none" stroke="#60fba0"/>
<path d="m119.4 9.3886 59.175 109.63" fill="none" stroke="#60fba0"/>
<path d="m178.57 119.02-168.66 59.603" fill="none" stroke="#5ffba1"/>
<path d="m9.9138 178.62 107.31-168.79" fill="none" stroke="#5ffba1"/>
<path d="m117.22 9.8276 62.736 107.94" fill="none" stroke="#5ffba1"/>
<path d="m179.96 117.77-169.23 61.641" fill="none" stroke="#5efaa2"/>
<path d="m10.723 179.41 104.32-169.13" fill="none" stroke="#5efaa2"/>
<path d="m115.04 10.282 66.265 106.25" fill="none" stroke="#5efaa2"/>
<path d="m181.3 116.53-169.72 63.67" fill="none" stroke="#5dfaa3"/>
<path d="m11.578 180.2 101.27-169.45" fill="none" stroke="#5dfaa3"/>
<path d="m112.85 10.751 69.761 104.53" fill="none" stroke="#5dfaa3"/>
<path d="m182.61 115.28-170.13 65.688" fill="none" stroke="#5cfaa4"/>
<path d="m12.478 180.97 98.176-169.73" fill="none" stroke="#5cfaa4"/>
<path d="m110.65 11.234 73.222 102.79" fill="none" stroke="#5cfaa4"/>
<path d="m183.88 114.03-170.45 67.695" fill="none" stroke="#5cfaa4"/>
<path d="m13.423 181.72 95.032-169.99" fill="none" stroke="#5bfaa5"/>
<path d="m108.45 11.733 76.647 101.04" fill="none" stroke="#5bf9a5"/>
<path d="m185.1 112.78-170.69 69.691" fill="none" stroke="#5bf9a5"/>
<path d="m14.411 182.47 91.841-170.22" fill="none" stroke="#5af9a6"/>
<path d="m106.25 12.246 80.034 99.277" fill="none" stroke="#5af9a6"/>
<path d="m186.29 111.52-170.84 71.676" fill="none" stroke="#5af9a6"/>
<path d="m15.444 183.2 88.605-170.42" fill="none" stroke="#59f9a7"/>
<path d="m104.05 12.774 83.381 97.494" fill="none" stroke="#59f9a7"/>
<path d="m187.43 110.27-170.91 73.649" fill="none" stroke="#59f9a7"/>
<path d="m16.52 183.92 85.324-170.6" fill="none" stroke="#58f9a8"/>
<path d="m101.84 13.317 86.687 95.695" fill="none" stroke="#58f9a8"/>
<path d="m188.53 109.01-170.89 75.61" fill="none" stroke="#58f8a8"/>
<path d="m17.638 184.62 82.001-170.75" fill="none" stroke="#57f8a9"/>
<path d="m99.639 13.873 89.949 93.88" fill="none" stroke="#57f8a9"/>
<path d="m189.59 107.75-170.79 77.559" fill="none" stroke="#57f8a9"/>
<path d="m18.798 185.31 78.638-170.87" fill="none" stroke="#56f8aa"/>
<path d="m97.436 14.445 93.167 92.051" fill="none" stroke="#56f8aa"/>
<path d="m190.6 106.5-170.6 79.496" fill="none" stroke="#56f8aa"/>
<path d="m20 185.99 75.235-170.96" fill="none" stroke="#56f8aa"/>
<path d="m95.235 15.03 96.338 90.206" fill="none" stroke="#55f8ab"/>
<path d="m191.57 105.24-170.33 81.419" fill="none" stroke="#55f7ab"/>
<path d="m21.243 186.66 71.795-171.03" fill="none" stroke="#55f7ab"/>
<path d="m93.038 15.63 99.462 88.347" fill="none" stroke="#54f7ac"/>
<path d="m192.5 103.98-169.97 83.33" fill="none" stroke="#54f7ac"/>
<path d="m22.526 187.31 68.319-171.06" fill="none" stroke="#54f7ac"/>
<path d="m90.845 16.244 102.54 86.473" fill="none" stroke="#53f7ad"/>
<path d="m193.38 102.72-169.53 85.227" fill="none" stroke="#53f7ad"/>
<path d="m23.849 187.94 64.809-171.07" fill="none" stroke="#53f7ad"/>
<path d="m88.658 16.871 105.56 84.585" fill="none" stroke="#52f7ae"/>
<path d="m194.22 101.46-169.01 87.109" fill="none" stroke="#52f6ae"/>
<path d="m25.211 188.57 61.267-171.05" fill="none" stroke="#52f6ae"/>
<path d="m86.478 17.513 108.53 82.684" fill="none" stroke="#52f6ae"/>
<path d="m195.01 100.2-168.4 88.978" fill="none" stroke="#51f6af"/>
<path d="m26.611 189.17 57.694-171.01" fill="none" stroke="#51f6af"/>
<path d="m84.305 18.168 111.45 80.769" fill="none" stroke="#51f6af"/>
<path d="m195.75 98.937-167.7 90.833" fill="none" stroke="#50f6b0"/>
<path d="m28.049 189.77 54.093-170.93" fill="none" stroke="#50f6b0"/>
<path d="m82.142 18.837 114.31 78.841" fill="none" stroke="#50f5b0"/>
<path d="m196.45 97.678-166.93 92.672" fill="none" stroke="#4ff5b1"/>
<path d="m29.523 190.35 50.465-170.83" fill="none" stroke="#4ff5b1"/>
<path d="m79.988 19.52 117.11 76.9" fill="none" stroke="#4ff5b1"/>
<path d="m197.1 96.42-166.07 94.497" fill="none" stroke="#4ef5b2"/>
<path d="m31.034 190.92 46.812-170.7" fill="none" stroke="#4ef5b2"/>
<path d="m77.846 20.216 119.86 74.947" fill="none" stroke="#4ef5b2"/>
<path d="m197.7 95.163-165.12 96.306" fill="none" stroke="#4ef5b2"/>
<path d="m32.58 191.47 43.135-170.54" fill="none" stroke="#4df4b3"/>
<path d="m75.716 20.925 122.55 72.982" fill="none" stroke="#4df4b3"/>
<path d="m198.26 93.907-164.1 98.1" fill="none" stroke="#4df4b3"/>
<path d="m34.161 192.01 39.437-170.36" fill="none" stroke="#4cf4b4"/>
<path d="m73.599 21.648 125.17 71.004" fill="none" stroke="#4cf4b4"/>
<path d="m198.77 92.652-162.99 99.877" fill="none" stroke="#4cf4b4"/>
<path d="m35.776 192.53 35.72-170.15" fill="none" stroke="#4bf4b5"/>
<path d="m71.496 22.383 127.73 69.016" fill="none" stroke="#4bf3b5"/>
<path d="m199.23 91.399-161.81 101.64" fill="none" stroke="#4bf3b5"/>
<path d="m37.424 193.04 31.984-169.91" fill="none" stroke="#4bf3b5"/>
<path d="m69.408 23.132 130.23 67.016" fill="none" stroke="#4af3b6"/>
<path d="m199.64 90.147-160.54 103.38" fill="none" stroke="#4af3b6"/>
<path d="m39.104 193.53 28.233-169.64" fill="none" stroke="#4af3b6"/>
<path d="m67.337 23.893 132.67 65.005" fill="none" stroke="#49f3b7"/>
<path d="m200.01 88.898-159.19 105.11" fill="none" stroke="#49f2b7"/>
<path d="m40.816 194.01 24.468-169.34" fill="none" stroke="#49f2b7"/>
<path d="m65.284 24.667 135.04 62.984" fill="none" stroke="#48f2b8"/>
<path d="m200.32 87.651-157.77 106.82" fill="none" stroke="#48f2b8"/>
<path d="m42.558 194.47 20.69-169.02" fill="none" stroke="#48f2b8"/>
<path d="m63.248 25.454 137.34 60.952" fill="none" stroke="#48f2b8"/>
<path d="m200.59 86.406-156.26 108.52" fill="none" stroke="#47f2b9"/>
<path d="m44.33 194.92 16.903-168.67" fill="none" stroke="#47f1b9"/>
<path d="m61.232 26.253 139.58 58.91" fill="none" stroke="#47f1b9"/>
<path d="m200.81 85.164-154.68 110.19" fill="none" stroke="#46f1ba"/>
<path d="m46.13 195.36 13.107-168.29" fill="none" stroke="#46f1ba"/>
<path d="m59.237 27.065 141.74 56.859" fill="none" stroke="#46f1ba"/>
<path d="m200.98 83.924-153.02 111.85" fill="none" stroke="#46f1ba"/>
<path d="m47.959 195.78 9.304-167.89" fill="none" stroke="#45f1bb"/>
<path d="m57.263 27.889 143.83 54.799" fill="none" stroke="#45f0bb"/>
<path d="m201.1 82.688-151.28 113.49" fill="none" stroke="#45f0bb"/>
<path d="m49.814 196.18 5.4968-167.45" fill="none" stroke="#44f0bc"/>
<path d="m55.311 28.725 145.86 52.73" fill="none" stroke="#44f0bc"/>
<path d="m201.17 81.454-149.47 115.11" fill="none" stroke="#44f0bc"/>
<path d="m51.696 196.57 1.6868-167" fill="none" stroke="#43f0bd"/>
<path d="m53.383 29.572 147.81 50.652" fill="none" stroke="#43efbd"/>
<path d="m201.19 80.224-147.59 116.72" fill="none" stroke="#43efbd"/>
<path d="m53.603 196.94-2.124-166.51" fill="none" stroke="#43efbd"/>
<path d="m51.479 30.432 149.68 48.566" fill="none" stroke="#42efbe"/>
<path d="m201.16 78.998-145.63 118.3" fill="none" stroke="#42efbe"/>
<path d="m55.534 197.3-5.9338-165.99" fill="none" stroke="#42efbe"/>
<path d="m49.6 31.303 151.49 46.472" fill="none" stroke="#41efbf"/>
<path d="m201.09 77.776-143.6 119.86" fill="none" stroke="#41eebf"/>
<path d="m57.488 197.64-9.7406-165.45" fill="none" stroke="#41eebf"/>
<path d="m47.748 32.186 153.21 44.371" fill="none" stroke="#41eebf"/>
<path d="m200.96 76.557-141.5 121.41" fill="none" stroke="#40eec0"/>
<path d="m59.465 197.97-13.543-164.89" fill="none" stroke="#40eec0"/>
<path d="m45.922 33.08 154.86 42.262" fill="none" stroke="#40eec0"/>
<path d="m200.79 75.342-139.32 122.94" fill="none" stroke="#3fedc1"/>
<path d="m61.463 198.28-17.338-164.29" fill="none" stroke="#3fedc1"/>
<path d="m44.125 33.986 156.44 40.147" fill="none" stroke="#3fedc1"/>
<path d="m200.56 74.132-137.08 124.44" fill="none" stroke="#3fedc1"/>
<path d="m63.481 198.57-21.124-163.67" fill="none" stroke="#3eedc2"/>
<path d="m42.356 34.902 157.93 38.025" fill="none" stroke="#3eedc2"/>
<path d="m200.29 72.927-134.77 125.93" fill="none" stroke="#3eecc2"/>
<path d="m65.518 198.85-24.9-163.02" fill="none" stroke="#3decc3"/>
<path d="m40.618 35.83 159.35 35.896" fill="none" stroke="#3decc3"/>
<path d="m199.97 71.726-132.39 127.39" fill="none" stroke="#3decc3"/>
<path d="m67.574 199.12-28.664-162.35" fill="none" stroke="#3decc3"/>
<path d="m38.91 36.768 160.69 33.762" fill="none" stroke="#3cebc4"/>
<path d="m199.6 70.531-129.95 128.84" fill="none" stroke="#3cebc4"/>
<path d="m69.647 199.37-32.414-161.65" fill="none" stroke="#3cebc4"/>
<path d="m37.233 37.717 161.95 31.623" fill="none" stroke="#3cebc4"/>
<path d="m199.18 69.34-127.44 130.26" fill="none" stroke="#3bebc5"/>
<path d="m71.736 199.6-36.147-160.92" fill="none" stroke="#3bebc5"/>
<path d="m35.589 38.676 163.12 29.478" fill="none" stroke="#3beac5"/>
<path d="m198.71 68.155-124.87 131.66" fill="none" stroke="#3aeac6"/>
<path d="m73.841 199.82-39.862-160.17" fill="none" stroke="#3aeac6"/>
<path d="m33.978 39.646 164.22 27.329" fill="none" stroke="#3aeac6"/>
<path d="m198.2 66.975-122.24 133.04" fill="none" stroke="#3aeac6"/>
<path d="m75.959 200.02-43.558-159.39" fill="none" stroke="#39e9c7"/>
<path d="m32.401 40.626 165.24 25.175" fill="none" stroke="#39e9c7"/>
<path d="m197.64 65.801-119.55 134.4" fill="none" stroke="#39e9c7"/>
<path d="m78.091 200.2-47.232-158.59" fill="none" stroke="#38e9c8"/>
<path d="m30.859 41.616 166.17 23.017" fill="none" stroke="#38e9c8"/>
<path d="m197.03 64.633-116.79 135.74" fill="none" stroke="#38e9c8"/>
<path d="m80.235 200.37-50.882-157.76" fill="none" stroke="#38e8c8"/>
<path d="m29.352 42.616 167.02 20.856" fill="none" stroke="#37e8c9"/>
<path d="m196.37 63.471-113.98 137.06" fill="none" stroke="#37e8c9"/>
<path d="m82.389 200.53-54.508-156.9" fill="none" stroke="#37e8c9"/>
<path d="m27.882 43.625 167.79 18.69" fill="none" stroke="#37e8c9"/>
</svg>
