<svg width="680" height="40" xmlns="http://www.w3.org/2000/svg"><path fill="none" stroke-width="1" d="M298.1821662133515,-10.04269546217466L320.65049394112964,-7.367376994955617" stroke="black" transform="translate(340,20)"></path><path fill="none" stroke-width="1" d="M320.65049394112964,-7.367376994955617L334.3811578468821,-3.8944908061618237" stroke="black" transform="translate(340,20)"></path><path fill="none" stroke-width="1" d="M334.3811578468821,-3.8944908061618237L339,0" stroke="black" transform="translate(340,20)"></path><path fill="none" stroke-width="1" d="M339,0L334.3811578468821,3.8944908061618237" stroke="black" transform="translate(340,20)"></path><path fill="none" stroke-width="1" d="M334.3811578468821,3.8944908061618237L320.65049394112964,7.367376994955617" stroke="black" transform="translate(340,20)"></path><path fill="none" stroke-width="1" d="M320.65049394112964,7.367376994955617L298.1821662133515,10.04269546217466" stroke="black" transform="translate(340,20)"></path><path fill="none" stroke-width="1" d="M298.1821662133515,10.04269546217466L267.58843224006154,11.630825131573268" stroke="black" transform="translate(340,20)"></path><path fill="none" stroke-width="1" d="M267.58843224006154,11.630825131573268L229.70296534336669,11.959840368986832" stroke="black" transform="translate(340,20)"></path><path fill="none" stroke-width="1" d="M229.70296534336669,11.959840368986832L185.55813715449412,10.99412307947505" stroke="black" transform="translate(340,20)"></path><path fill="none" stroke-width="1" d="M185.55813715449412,10.99412307947505L136.35688568690048,8.838218603775694" stroke="black" transform="translate(340,20)"></path><path fill="none" stroke-width="1" d="M136.35688568690048,8.838218603775694L83.4399355085191,5.725517987547709" stroke="black" transform="translate(340,20)"></path><path fill="none" stroke-width="1" d="M83.4399355085191,5.725517987547709L28.24926325709826,1.9929918432803282" stroke="black" transform="translate(340,20)"></path><path fill="none" stroke-width="1" d="M28.24926325709826,1.9929918432803282L-27.711195943740933,-1.9552889670847018" stroke="black" transform="translate(340,20)"></path><path fill="none" stroke-width="1" d="M-27.711195943740933,-1.9552889670847018L-82.91653042518044,-5.691896699288303" stroke="black" transform="translate(340,20)"></path><path fill="none" stroke-width="1" d="M-82.91653042518044,-5.691896699288303L-135.86240552067233,-8.812318632258538" stroke="black" transform="translate(340,20)"></path><path fill="none" stroke-width="1" d="M-135.86240552067233,-8.812318632258538L-185.10605639408237,-10.978748269445152" stroke="black" transform="translate(340,20)"></path><path fill="none" stroke-width="1" d="M-185.10605639408237,-10.978748269445152L-229.30560310188525,-11.956655146224707" stroke="black" transform="translate(340,20)"></path><path fill="none" stroke-width="1" d="M-229.30560310188525,-11.956655146224707L-267.2566165615872,-11.640174317697634" stroke="black" transform="translate(340,20)"></path><path fill="none" stroke-width="1" d="M-267.2566165615872,-11.640174317697634L-297.92493901082105,-10.063566945401242" stroke="black" transform="translate(340,20)"></path><path fill="none" stroke-width="1" d="M-297.92493901082105,-10.063566945401242L-320.47486460596497,-7.397511297951532" stroke="black" transform="translate(340,20)"></path><path fill="none" stroke-width="1" d="M-320.47486460596497,-7.397511297951532L-334.2919122444316,-3.9306256895441622" stroke="black" transform="translate(340,20)"></path><path fill="none" stroke-width="1" d="M-334.2919122444316,-3.9306256895441622L-338.9995700556359,-0.03822362151766654" stroke="black" transform="translate(340,20)"></path><path fill="none" stroke-width="1" d="M-338.9995700556359,-0.03822362151766654L-334.469555276505,3.858316408601045" stroke="black" transform="translate(340,20)"></path><path fill="none" stroke-width="1" d="M-334.469555276505,3.858316408601045L-320.82530993191256,7.33716794127632" stroke="black" transform="translate(340,20)"></path><path fill="none" stroke-width="1" d="M-320.82530993191256,7.33716794127632L-298.4386370634226,10.021722084020027" stroke="black" transform="translate(340,20)"></path></svg>