<svg width="680" height="40" xmlns="http://www.w3.org/2000/svg"><path fill="none" stroke-width="1" d="M-31.634824873439875,8.029582545118352L0,9" stroke="black" transform="translate(340,20)"></path><path fill="none" stroke-width="1" d="M0,9L31.634824873439875,8.029582545118352" stroke="black" transform="translate(340,20)"></path><path fill="none" stroke-width="1" d="M31.634824873439875,8.029582545118352L62.991923367020185,5.3275990775265125" stroke="black" transform="translate(340,20)"></path><path fill="none" stroke-width="1" d="M62.991923367020185,5.3275990775265125L93.7960072981016,1.4767278016139853" stroke="black" transform="translate(340,20)"></path><path fill="none" stroke-width="1" d="M93.7960072981016,1.4767278016139853L123.77664347322425,-2.69259734869748" stroke="black" transform="translate(340,20)"></path><path fill="none" stroke-width="1" d="M123.77664347322425,-2.69259734869748L152.67062785746413,-6.281268395421371" stroke="black" transform="translate(340,20)"></path><path fill="none" stroke-width="1" d="M152.67062785746413,-6.281268395421371L180.22429627803504,-8.515394444431184" stroke="black" transform="translate(340,20)"></path><path fill="none" stroke-width="1" d="M180.22429627803504,-8.515394444431184L206.19575137615894,-8.91318995920139" stroke="black" transform="translate(340,20)"></path><path fill="none" stroke-width="1" d="M206.19575137615894,-8.91318995920139L230.35698625649357,-7.388871003952733" stroke="black" transform="translate(340,20)"></path><path fill="none" stroke-width="1" d="M230.35698625649357,-7.388871003952733L252.49588619031516,-4.27115440556972" stroke="black" transform="translate(340,20)"></path><path fill="none" stroke-width="1" d="M252.49588619031516,-4.27115440556972L272.41809079923405,-0.23237052104014225" stroke="black" transform="translate(340,20)"></path><path fill="none" stroke-width="1" d="M272.41809079923405,-0.23237052104014225L289.948700371082,3.8565236767377167" stroke="black" transform="translate(340,20)"></path><path fill="none" stroke-width="1" d="M289.948700371082,3.8565236767377167L304.9338113279952,7.113765009833214" stroke="black" transform="translate(340,20)"></path><path fill="none" stroke-width="1" d="M304.9338113279952,7.113765009833214L317.2418673666114,8.836934846157943" stroke="black" transform="translate(340,20)"></path><path fill="none" stroke-width="1" d="M317.2418673666114,8.836934846157943L326.76481440854116,8.654434499735217" stroke="black" transform="translate(340,20)"></path><path fill="none" stroke-width="1" d="M326.76481440854116,8.654434499735217L333.4190492216461,6.605619864274047" stroke="black" transform="translate(340,20)"></path><path fill="none" stroke-width="1" d="M333.4190492216461,6.605619864274047L337.1461533840519,3.132314380678552" stroke="black" transform="translate(340,20)"></path><path fill="none" stroke-width="1" d="M337.1461533840519,3.132314380678552L337.9134061473261,-1.0164694471807796" stroke="black" transform="translate(340,20)"></path><path fill="none" stroke-width="1" d="M337.9134061473261,-1.0164694471807796L335.7140716963273,-4.946053343062749" stroke="black" transform="translate(340,20)"></path><path fill="none" stroke-width="1" d="M335.7140716963273,-4.946053343062749L330.5674582838314,-7.809029128526097" stroke="black" transform="translate(340,20)"></path><path fill="none" stroke-width="1" d="M330.5674582838314,-7.809029128526097L322.518748720785,-8.988000875767007" stroke="black" transform="translate(340,20)"></path><path fill="none" stroke-width="1" d="M322.518748720785,-8.988000875767007L311.6386037103351,-8.22872530426662" stroke="black" transform="translate(340,20)"></path><path fill="none" stroke-width="1" d="M311.6386037103351,-8.22872530426662L298.02254150801764,-5.6949389179469785" stroke="black" transform="translate(340,20)"></path><path fill="none" stroke-width="1" d="M298.02254150801764,-5.6949389179469785L281.79009935415326,-1.9330485026360988" stroke="black" transform="translate(340,20)"></path><path fill="none" stroke-width="1" d="M281.79009935415326,-1.9330485026360988L263.08378404034585,2.2457005811394115" stroke="black" transform="translate(340,20)"></path><path fill="none" stroke-width="1" d="M263.08378404034585,2.2457005811394115L242.06782082320433,5.940168099942593" stroke="black" transform="translate(340,20)"></path><path fill="none" stroke-width="1" d="M242.06782082320433,5.940168099942593L218.9267116687396,8.353648327831227" stroke="black" transform="translate(340,20)"></path><path fill="none" stroke-width="1" d="M218.9267116687396,8.353648327831227L193.86361548480457,8.965678300326452" stroke="black" transform="translate(340,20)"></path><path fill="none" stroke-width="1" d="M193.86361548480457,8.965678300326452L167.09856456173367,7.644274780046033" stroke="black" transform="translate(340,20)"></path><path fill="none" stroke-width="1" d="M167.09856456173367,7.644274780046033L138.86653287929013,4.674396220550444" stroke="black" transform="translate(340,20)"></path><path fill="none" stroke-width="1" d="M138.86653287929013,4.674396220550444L109.41537323851229,0.6964919536204166" stroke="black" transform="translate(340,20)"></path><path fill="none" stroke-width="1" d="M109.41537323851229,0.6964919536204166L79.00364132865816,-3.431609635304679" stroke="black" transform="translate(340,20)"></path><path fill="none" stroke-width="1" d="M79.00364132865816,-3.431609635304679L47.89832583205395,-6.819690360132075" stroke="black" transform="translate(340,20)"></path><path fill="none" stroke-width="1" d="M47.89832583205395,-6.819690360132075L16.372504494564254,-8.73711629332385" stroke="black" transform="translate(340,20)"></path><path fill="none" stroke-width="1" d="M16.372504494564254,-8.73711629332385L-15.297053260645505,-8.770397747321777" stroke="black" transform="translate(340,20)"></path><path fill="none" stroke-width="1" d="M-15.297053260645505,-8.770397747321777L-46.83231612907813,-6.912357632373974" stroke="black" transform="translate(340,20)"></path><path fill="none" stroke-width="1" d="M-46.83231612907813,-6.912357632373974L-77.95643179909864,-3.5636791839061788" stroke="black" transform="translate(340,20)"></path><path fill="none" stroke-width="1" d="M-77.95643179909864,-3.5636791839061788L-108.39615747559304,0.5535007053751816" stroke="black" transform="translate(340,20)"></path><path fill="none" stroke-width="1" d="M-108.39615747559304,0.5535007053751816L-137.88425871519482,4.551319095593123" stroke="black" transform="translate(340,20)"></path><path fill="none" stroke-width="1" d="M-137.88425871519482,4.551319095593123L-166.16185551338455,7.567653154011124" stroke="black" transform="translate(340,20)"></path><path fill="none" stroke-width="1" d="M-166.16185551338455,7.567653154011124L-192.98069504684793,8.952035498397441" stroke="black" transform="translate(340,20)"></path><path fill="none" stroke-width="1" d="M-192.98069504684793,8.952035498397441L-218.10533111838075,8.405926397369308" stroke="black" transform="translate(340,20)"></path><path fill="none" stroke-width="1" d="M-218.10533111838075,8.405926397369308L-241.31519117070326,6.047093362906173" stroke="black" transform="translate(340,20)"></path><path fill="none" stroke-width="1" d="M-241.31519117070326,6.047093362906173L-262.40651272258896,2.3842147838512204" stroke="black" transform="translate(340,20)"></path><path fill="none" stroke-width="1" d="M-262.40651272258896,2.3842147838512204L-281.19413222707675,-1.792815715745089" stroke="black" transform="translate(340,20)"></path><path fill="none" stroke-width="1" d="M-281.19413222707675,-1.792815715745089L-297.51311064713906,-5.583228512242471" stroke="black" transform="translate(340,20)"></path><path fill="none" stroke-width="1" d="M-297.51311064713906,-5.583228512242471L-311.22018147765874,-8.169627441434741" stroke="black" transform="translate(340,20)"></path><path fill="none" stroke-width="1" d="M-311.22018147765874,-8.169627441434741L-322.1950085013351,-8.99425991083848" stroke="black" transform="translate(340,20)"></path><path fill="none" stroke-width="1" d="M-322.1950085013351,-8.99425991083848L-330.3412422365111,-7.879295311082247" stroke="black" transform="translate(340,20)"></path><path fill="none" stroke-width="1" d="M-330.3412422365111,-7.879295311082247L-335.5873658022237,-5.065173888650154" stroke="black" transform="translate(340,20)"></path><path fill="none" stroke-width="1" d="M-335.5873658022237,-5.065173888650154L-337.8873227745149,-1.1587562098720907" stroke="black" transform="translate(340,20)"></path><path fill="none" stroke-width="1" d="M-337.8873227745149,-1.1587562098720907L-337.22092152196916,2.9975453026865027" stroke="black" transform="translate(340,20)"></path><path fill="none" stroke-width="1" d="M-337.22092152196916,2.9975453026865027L-333.59401247075886,6.507431196683878" stroke="black" transform="translate(340,20)"></path><path fill="none" stroke-width="1" d="M-333.59401247075886,6.507431196683878L-327.03843674296724,8.614000464080492" stroke="black" transform="translate(340,20)"></path><path fill="none" stroke-width="1" d="M-327.03843674296724,8.614000464080492L-317.61174661909706,8.86297497443214" stroke="black" transform="translate(340,20)"></path><path fill="none" stroke-width="1" d="M-317.61174661909706,8.86297497443214L-305.3967002788644,7.200663792035319" stroke="black" transform="translate(340,20)"></path><path fill="none" stroke-width="1" d="M-305.3967002788644,7.200663792035319L-290.50053525601436,3.9855415361884083" stroke="black" transform="translate(340,20)"></path><path fill="none" stroke-width="1" d="M-290.50053525601436,3.9855415361884083L-273.05402698559806,-0.08905606940807025" stroke="black" transform="translate(340,20)"></path><path fill="none" stroke-width="1" d="M-273.05402698559806,-0.08905606940807025L-253.2103407088494,-4.144448882956383" stroke="black" transform="translate(340,20)"></path><path fill="none" stroke-width="1" d="M-253.2103407088494,-4.144448882956383L-231.14368681494386,-7.3060982438634445" stroke="black" transform="translate(340,20)"></path><path fill="none" stroke-width="1" d="M-231.14368681494386,-7.3060982438634445L-207.04779142457605,-8.892199768564891" stroke="black" transform="translate(340,20)"></path><path fill="none" stroke-width="1" d="M-207.04779142457605,-8.892199768564891L-181.13419564230426,-8.560713322664139" stroke="black" transform="translate(340,20)"></path><path fill="none" stroke-width="1" d="M-181.13419564230426,-8.560713322664139L-153.63039840875945,-6.383123402418686" stroke="black" transform="translate(340,20)"></path><path fill="none" stroke-width="1" d="M-153.63039840875945,-6.383123402418686L-124.77785925686533,-2.8290236229797565" stroke="black" transform="translate(340,20)"></path><path fill="none" stroke-width="1" d="M-124.77785925686533,-2.8290236229797565L-94.82987850614222,1.335150357350747" stroke="black" transform="translate(340,20)"></path><path fill="none" stroke-width="1" d="M-94.82987850614222,1.335150357350747L-64.04937350515385,5.211401401755776" stroke="black" transform="translate(340,20)"></path><path fill="none" stroke-width="1" d="M-64.04937350515385,5.211401401755776L-32.7065704447634,7.9638224717922474" stroke="black" transform="translate(340,20)"></path><path fill="none" stroke-width="1" d="M-32.7065704447634,7.9638224717922474L-1.0766320060806407,8.998858578671845" stroke="black" transform="translate(340,20)"></path></svg>